<?xml version="1.0" encoding="UTF-8" standalone="no"?>
<!-- Created with Inkscape (http://www.inkscape.org/) -->

<svg
   width="55mm"
   height="35mm"
   viewBox="0 0 55 35"
   version="1.1"
   id="svg5"
   xmlns="http://www.w3.org/2000/svg"
   xmlns:svg="http://www.w3.org/2000/svg">
  <defs
     id="defs2">
    <filter
       id="mask-powermask-path-effect55244_inverse"
       style="color-interpolation-filters:sRGB"
       height="100"
       width="100"
       x="-50"
       y="-50">
      <feColorMatrix
         id="mask-powermask-path-effect55244_primitive1"
         values="1"
         type="saturate"
         result="fbSourceGraphic" />
      <feColorMatrix
         id="mask-powermask-path-effect55244_primitive2"
         values="-1 0 0 0 1 0 -1 0 0 1 0 0 -1 0 1 0 0 0 1 0 "
         in="fbSourceGraphic" />
    </filter>
  </defs>
  <g
     id="layer1">
    <ellipse
       style="fill:none;fill-opacity:1;stroke:#000000;stroke-width:0.681889"
       id="ellipse11683"
       cx="24.649025"
       cy="10.504791"
       rx="23.71409"
       ry="9.688796" />
    <ellipse
       style="fill:none;fill-opacity:1;stroke:#000000;stroke-width:0.681889"
       id="ellipse12422"
       cx="25.979881"
       cy="14.206787"
       rx="23.71409"
       ry="9.688796" />
    <ellipse
       style="fill:none;fill-opacity:1;stroke:#000000;stroke-width:0.681889"
       id="ellipse12424"
       cx="27.177696"
       cy="17.682587"
       rx="23.71409"
       ry="9.688796" />
    <ellipse
       style="fill:none;fill-opacity:1;stroke:#000000;stroke-width:0.681889"
       id="ellipse12426"
       cx="28.596733"
       cy="21.310394"
       rx="23.71409"
       ry="9.688796" />
    <ellipse
       style="fill:none;fill-opacity:1;stroke:#000000;stroke-width:0.681889"
       id="ellipse12428"
       cx="30.350975"
       cy="24.495209"
       rx="23.71409"
       ry="9.688796" />
    <path
       style="fill:#ff0000;fill-opacity:0.565015;stroke:#000000;stroke-width:0.260236"
       d="m 43.441785,16.716363 c -3.240701,1.670288 -6.838206,2.53386 -10.41708,3.125098 -5.85063,0.875375 -11.850052,0.807933 -17.680183,-0.158697 -1.278403,-0.198384 -2.536174,-0.531945 -3.796545,-0.784594 -0.827604,0.505406 -1.712082,0.9811 -2.404399,1.669626 -0.05556,0.274901 0.388281,0.267202 0.550841,0.384518 4.418341,1.680157 9.149099,2.401041 13.853637,2.619667 3.056241,0.03048 6.124831,0.06257 9.160517,-0.349859 4.203893,-0.540782 8.439306,-1.481798 12.199932,-3.501813 0.802773,-0.468339 1.643687,-0.933292 2.290951,-1.607476 0.06777,-0.287152 -0.411142,-0.235109 -0.567362,-0.365946 -1.045189,-0.388169 -2.113161,-0.770942 -3.190309,-1.030524 z m 4.450067,1.616285 c -2.967051,2.492402 -6.706211,3.777616 -10.430547,4.62722 -6.26206,1.362735 -12.765543,1.526883 -19.112143,0.682175 -3.332469,-0.455216 -6.6203,-1.246718 -9.737873,-2.527856 -0.542469,0.28067 -0.812852,0.928449 -1.185783,1.400571 -0.103497,0.286994 0.365099,0.380234 0.545198,0.527527 3.931796,2.182178 8.399703,3.16185 12.82849,3.689614 2.503659,0.294719 5.026175,0.424524 7.546427,0.327792 4.835813,-0.06199 9.699945,-0.733583 14.279115,-2.326983 2.514145,-0.916755 5.065747,-2.111587 6.838952,-4.182586 0.226579,-0.308054 0.518063,-0.6096 0.638649,-0.971682 -0.247174,-0.380763 -0.749665,-0.520516 -1.12001,-0.761684 -0.360138,-0.147611 -0.709795,-0.449553 -1.090475,-0.484108 z m 2.747221,1.557999 c -0.431371,0.563166 -0.803611,1.188085 -1.346924,1.66333 -2.376406,2.296901 -5.558423,3.495119 -8.678011,4.387665 C 36.002459,27.194735 31.213394,27.69231 26.442182,27.60976 22.521991,27.59574 18.600546,27.140072 14.785802,26.2212 12.215224,25.57522 9.654806,24.691274 7.38317,23.325177 7.173192,23.122612 7.001316,23.43826 7.010605,23.635745 c -0.06938,0.426006 -0.128791,0.881353 -0.04269,1.300533 2.725042,2.383049 6.237478,3.602328 9.698884,4.45807 4.703413,1.109637 9.563664,1.480979 14.386803,1.276641 4.691822,-0.209656 9.409404,-0.936307 13.813446,-2.614983 2.302431,-0.925353 4.6501,-2.103331 6.19415,-4.112762 0.650229,-0.872464 1.140762,-1.998663 0.89939,-3.094884 -0.413247,-0.319009 -0.79806,-0.68162 -1.23625,-0.965333 l -0.0648,0.0058 z m 1.946818,1.843008 c -0.167934,1.14427 -0.712364,2.209853 -1.49968,3.06414 -1.8513,2.016945 -4.394964,3.185424 -6.922698,4.101412 -5.766411,1.983766 -11.941159,2.528411 -18.010669,2.30333 C 21.104102,30.987431 16.007063,30.179552 11.319445,28.229838 9.971983,27.684875 8.72946,26.932797 7.509477,26.149789 c -0.320297,-0.02513 -0.07132,0.361209 0.02596,0.481277 1.302914,2.050468 3.504723,3.288507 5.670095,4.247806 4.537374,1.915266 9.472006,2.69449 14.364144,2.967144 4.198712,0.187616 8.428503,-0.04326 12.564864,-0.803461 3.595865,-0.715618 7.228311,-1.723337 10.32365,-3.753273 1.402537,-0.957818 2.768113,-2.221627 3.229522,-3.912208 0.16578,-0.955728 0.08409,-1.978555 -0.427053,-2.824031 -0.168381,-0.298688 -0.316381,-0.645001 -0.591526,-0.853969 l -0.06008,0.02487 z"
       id="path12711" />
    <path
       style="fill:#ff0000;fill-opacity:0.565015;stroke:#000000;stroke-width:0.260236"
       d="m 7.246701,17.434415 c -0.438121,0.488976 -0.992907,0.922072 -1.292035,1.514157 0.134411,0.324855 0.572498,0.422091 0.838211,0.628174 0.522301,0.245772 1.000855,0.648784 1.573297,0.756233 0.459214,-0.123508 0.74059,-0.58399 1.155179,-0.805869 C 9.883525,19.239747 10.328361,19.035277 10.6468,18.709547 10.435205,18.438774 9.963051,18.452029 9.651472,18.291876 8.839339,18.046078 8.050487,17.671641 7.246701,17.434415 Z"
       id="path12750" />
    <path
       style="fill:#ff0000;fill-opacity:0.565015;stroke:#000000;stroke-width:0.260236"
       d="m 5.54538,19.616064 c -0.164812,0.412219 -0.35202,0.859127 -0.353886,1.297092 0.487831,0.513477 1.029177,0.985599 1.617835,1.37795 0.303363,-0.06657 0.351149,-0.499401 0.570158,-0.696594 C 7.545288,21.334637 7.805816,21.126384 7.921433,20.844683 7.276411,20.40521 6.521158,20.106098 5.862528,19.667816 5.768738,19.619346 5.631208,19.476708 5.54538,19.616066 Z"
       id="path12789" />
    <path
       style="fill:#ff0000;fill-opacity:0.565015;stroke:#000000;stroke-width:0.260236"
       d="m 5.339402,21.956541 c -0.240192,0.154173 0.02729,0.494982 0.07052,0.702045 0.228833,0.521785 0.485912,1.061641 0.857586,1.486455 C 6.526966,23.993409 6.419733,23.550999 6.540537,23.28586 6.682023,23.019663 6.551777,22.735844 6.288447,22.613712 5.962438,22.430303 5.713497,22.02684 5.3394,21.956541 Z"
       id="path12828" />
    <path
       style="fill:#ff0000;fill-opacity:0.565015;stroke:#000000;stroke-width:0.260236"
       d="m 3.803525,18.281822 c 0.07096,0.653838 0.385344,1.287198 0.762664,1.821789 0.281283,0.173541 0.279672,-0.337449 0.389974,-0.48731 0.28997,-0.351498 0.05322,-0.624046 -0.279042,-0.805233 C 4.404637,18.62787 4.177489,18.348788 3.874936,18.226815 l -0.05154,0.03971 z"
       id="path12867" />
    <path
       style="fill:#ff0000;fill-opacity:0.565015;stroke:#000000;stroke-width:0.260236"
       d="m 4.22069,15.850751 c -0.235749,0.363141 -0.371744,0.823834 -0.429111,1.25685 0.15817,0.439182 0.621797,0.693658 0.929743,1.02698 0.211042,0.169916 0.407715,0.378328 0.652515,0.495803 C 5.824849,18.233985 6.152654,17.677117 6.608563,17.264261 6.648903,16.962505 6.146481,16.947713 5.948028,16.775681 5.366257,16.500965 4.837244,16.077419 4.247276,15.849985 Z"
       id="path12906" />
    <path
       style="fill:#ff0000;fill-opacity:0.565015;stroke:#000000;stroke-width:0.260236"
       d="m 49.168636,16.886251 c -0.283332,0.251169 -0.528389,0.600075 -0.722638,0.93673 0.09243,0.272786 0.510553,0.308293 0.729464,0.482944 0.388765,0.170736 0.748803,0.442569 1.130565,0.599044 0.254777,-0.120545 0.235468,-0.502841 0.264683,-0.74766 -0.197998,-0.454104 -0.689879,-0.710618 -1.039547,-1.04349 -0.116354,-0.07496 -0.219795,-0.207195 -0.362527,-0.227568 z"
       id="path12982" />
    <path
       style="fill:#ff0000;fill-opacity:0.565015;stroke:#000000;stroke-width:0.260236"
       d="m 46.019115,15.075258 c -0.538332,0.444659 -1.152678,0.789093 -1.699413,1.201314 0.222173,0.286147 0.726617,0.27686 1.057515,0.44741 0.778222,0.261778 1.556012,0.537131 2.312469,0.862144 0.418833,-0.201242 0.726268,-0.65905 0.95776,-1.055634 -0.368715,-0.38354 -0.939334,-0.607219 -1.411155,-0.888602 -0.404773,-0.178012 -0.791586,-0.494877 -1.217176,-0.566632 z"
       id="path13021" />
    <path
       style="fill:#ff0000;fill-opacity:0.565015;stroke:#000000;stroke-width:0.260236"
       d="m 48.509278,11.815062 c -0.222319,0.250719 -0.326927,0.631692 -0.397597,0.946784 0.38762,0.276781 0.70621,0.651484 1.103844,0.910961 0.301593,-0.05226 0.0524,-0.44077 0.01262,-0.624866 -0.185254,-0.414523 -0.301932,-0.902017 -0.625081,-1.230603 -0.02933,-0.01296 -0.06318,-0.01508 -0.09378,-0.0026 z m -0.778041,1.473227 c -0.345742,0.481753 -0.786705,0.895085 -1.132052,1.357603 0.428096,0.340678 1.002686,0.517578 1.472893,0.822722 0.296519,0.129249 0.55767,0.421614 0.885624,0.438044 0.252709,-0.294772 0.352507,-0.725487 0.405604,-1.105984 -0.193498,-0.538163 -0.757722,-0.838888 -1.142953,-1.232324 -0.151741,-0.07466 -0.302786,-0.400341 -0.489116,-0.280061 z"
       id="path13060" />
    <path
       style="fill:#ff0000;fill-opacity:0.565015;stroke:#000000;stroke-width:0.260236"
       d="m 49.788224,15.464221 c -0.06801,0.288503 -0.337281,0.621877 -0.233426,0.918713 0.264694,0.257254 0.54366,0.527896 0.8647,0.704956 0.273746,-0.1143 -0.0011,-0.487654 -0.03303,-0.688261 -0.140742,-0.330623 -0.250306,-0.71038 -0.511714,-0.960967 l -0.0624,0.01852 z"
       id="path13099" />
    <path
       style="fill:#00ffff;fill-opacity:0.565015;stroke:#000000;stroke-width:0.0650592"
       d="m 51.084259,18.739286 c -0.122375,0.04543 -0.123809,0.204709 -0.172781,0.307659 -0.02717,0.10353 -0.125582,0.254925 0.0054,0.326205 0.223856,0.144224 0.42218,0.32176 0.649248,0.459131 0.108471,0.04167 0.187809,-0.09594 0.126053,-0.182299 -0.148691,-0.301227 -0.308938,-0.599995 -0.503859,-0.873945 -0.02524,-0.03326 -0.06639,-0.03463 -0.104101,-0.03675 z"
       id="path13214" />
    <path
       style="fill:#00ffff;fill-opacity:0.565015;stroke:#000000;stroke-width:0.260236"
       d="m 24.470584,1.0902294 c -5.235718,0.041645 -10.52584,0.6727825 -15.478197,2.4351191 -2.384216,0.89236 -4.783979,2.039541 -6.515713,3.958325 -1.021176,1.143239 -1.625958,2.8337415 -1.02506,4.3203295 0.171802,0.365389 0.283824,0.825235 0.608912,1.079315 0.277067,-0.101018 0.284978,-0.518875 0.445215,-0.7502 0.979977,-1.907646 2.845842,-3.1512935 4.691184,-4.1352265 4.417279,-2.24827 9.389575,-3.140075 14.286277,-3.57796 2.716279,-0.145574 5.455174,-0.201533 8.171521,-0.04929 4.96828,0.352584 10.001401,1.196393 14.535714,3.342825 1.32765,0.639128 2.609001,1.415203 3.712215,2.4037135 0.315883,0.05342 0.08816,-0.3773495 0.06735,-0.5554135 -0.563555,-1.919052 -2.22445,-3.2566 -3.864105,-4.261037 C 40.629534,3.2615585 36.648137,2.2819657 32.697059,1.6698257 29.975232,1.2656217 27.22174,1.0824772 24.470584,1.0902294 Z m 1.142092,3.7004891 c -5.356701,0.0594 -10.776027,0.735727 -15.811264,2.635779 -2.29516,0.909214 -4.619702,2.070841 -6.200307,4.0283335 -0.475178,0.643997 -0.93772,1.386152 -0.98402,2.202737 0.337072,0.471196 0.84092,0.825632 1.296607,1.183878 0.320236,0.128984 0.440719,-0.364781 0.652624,-0.519695 2.056902,-2.288302 4.963795,-3.539066 7.82488,-4.4888415 4.242289,-1.343792 8.702577,-1.968976 13.142946,-2.06203 3.155524,-0.05974 6.314594,0.02773 9.438802,0.48969 3.861194,0.5733 7.736485,1.505585 11.21806,3.3200455 0.473398,0.214895 0.881883,0.589676 1.387369,0.726202 0.282075,-0.198702 0.268965,-0.652092 0.416034,-0.947817 0.217223,-0.410131 -0.33441,-0.64098 -0.554821,-0.914188 C 44.739619,8.1531495 41.306531,6.9618895 37.916973,6.1178155 33.893139,5.1574045 29.744729,4.7719855 25.612676,4.7907185 Z m 0.885285,3.512688 c -4.859742,0.0026 -9.747694,0.654976 -14.367814,2.1911455 -2.483437,0.875798 -5.003609,1.970591 -6.872324,3.88374 -0.208876,0.291942 -0.589569,0.538003 -0.635469,0.909162 0.266941,0.351949 0.75279,0.488658 1.112637,0.734324 0.499541,0.233838 0.984342,0.592851 1.511964,0.708792 2.308995,-1.792394 5.082587,-2.866575 7.866192,-3.667945 3.341325,-0.919031 6.796577,-1.430285 10.253133,-1.609381 2.586667,-0.05707 5.190741,-0.129487 7.768471,0.07541 4.320476,0.380576 8.642879,1.144852 12.665681,2.806065 0.394229,0.05188 0.599125,-0.425794 0.8647,-0.640318 0.20388,-0.260879 0.480523,-0.489188 0.616538,-0.787691 C 46.224498,12.128412 44.987984,11.580857 43.774739,11.069708 39.687438,9.4458545 35.30144,8.6822665 30.927951,8.3896905 c -1.475322,-0.07157 -2.95312,-0.08668 -4.42999,-0.08628 z m 1.837791,3.5910835 c -5.346131,0.05355 -10.751815,0.722207 -15.788809,2.582386 -1.564585,0.587745 -3.071995,1.351122 -4.446342,2.30288 -0.210444,0.100647 -0.160112,0.368301 0.07389,0.389572 1.086472,0.411507 2.184591,0.839286 3.319216,1.084687 1.017514,-0.394838 1.984764,-0.912945 3.025061,-1.254813 6.097098,-2.156301 12.661987,-2.655146 19.08947,-2.362279 3.290266,0.179043 6.571248,0.644631 9.766581,1.477512 0.676576,-0.32631 1.320231,-0.760757 1.933347,-1.206261 0.115702,-0.282681 -0.396589,-0.27948 -0.567743,-0.403199 C 39.513675,12.564652 33.885974,11.887769 28.335752,11.89449 Z"
       id="path13290" />
    <path
       style="fill:#00ffff;fill-opacity:0.565015;stroke:#000000;stroke-width:0.260236"
       d="m 2.666134,14.657084 c -0.232916,0.160893 0.05225,0.502179 0.07395,0.722762 0.143164,0.37338 0.259715,0.786341 0.517933,1.091009 0.251611,-0.134381 0.235908,-0.541813 0.412374,-0.779144 0.244771,-0.355627 -0.35801,-0.511202 -0.539062,-0.74721 -0.147828,-0.09316 -0.283871,-0.267335 -0.465198,-0.287417 z"
       id="path13329" />
    <path
       style="fill:#c55ab1;fill-opacity:1;stroke:#000000;stroke-width:0.260236"
       d="m 4.299727,15.972353 c -0.283329,0.221377 -0.336463,0.651538 -0.4239,0.985811 0.0085,0.482918 0.539594,0.745517 0.827127,1.066668 0.234154,0.139541 0.421786,0.511387 0.71129,0.472255 C 5.771392,18.099683 6.17925,17.713338 6.441849,17.249285 6.371539,16.910883 5.8891,16.887124 5.65682,16.688131 5.19722,16.473183 4.787396,16.105995 4.299727,15.972353 Z"
       id="path13368" />
    <path
       style="fill:#c55ab1;fill-opacity:1;stroke:#000000;stroke-width:0.260236"
       d="m 7.296003,17.543953 c -0.471477,0.324379 -0.821123,0.826003 -1.166616,1.281483 -0.112705,0.294931 0.327718,0.423598 0.500142,0.573457 0.557704,0.306891 1.110114,0.674635 1.70907,0.878047 0.59631,-0.263393 1.034579,-0.793565 1.602589,-1.114769 0.132641,-0.150945 0.610222,-0.273897 0.426824,-0.529379 C 9.635142,18.309418 8.846586,18.105795 8.100715,17.800466 7.833758,17.716066 7.572284,17.590704 7.296003,17.543953 Z"
       id="path13407" />
    <path
       style="fill:#c55ab1;fill-opacity:1;stroke:#000000;stroke-width:0.260236"
       d="m 4.038475,18.474598 c -0.236474,0.157215 0.03888,0.485537 0.08386,0.69379 0.143311,0.298265 0.269136,0.633836 0.50103,0.867252 0.230273,-0.142797 0.326216,-0.513028 0.357191,-0.789729 -0.202481,-0.331894 -0.55671,-0.594387 -0.900663,-0.771816 h -0.01043 z"
       id="path13446" />
    <path
       style="fill:#c55ab1;fill-opacity:1;stroke:#000000;stroke-width:0.260236"
       d="m 5.676007,19.705121 c -0.276122,0.158962 -0.274619,0.574517 -0.383241,0.852648 -0.141663,0.47961 0.461801,0.722099 0.714381,1.024783 0.277008,0.184097 0.518816,0.556868 0.870545,0.570416 C 7.187238,21.896692 7.309354,21.465713 7.61431,21.192081 7.858097,20.997002 7.67007,20.697707 7.427263,20.617856 6.838917,20.334513 6.304636,19.935786 5.703579,19.704883 h -0.01156 z"
       id="path13485" />
    <path
       style="fill:#c55ab1;fill-opacity:1;stroke:#000000;stroke-width:0.260236"
       d="m 5.440549,22.091478 c -0.257553,0.146791 0.06097,0.486596 0.101412,0.693447 0.200819,0.372639 0.325261,0.844577 0.675484,1.103682 0.303483,-0.04178 0.183065,-0.500696 0.290732,-0.703209 0.14622,-0.40013 -0.399293,-0.562239 -0.606335,-0.797903 -0.14873,-0.09575 -0.280178,-0.266992 -0.461293,-0.296017 z"
       id="path13524" />
    <path
       style="fill:#c55ab1;fill-opacity:1;stroke:#000000;stroke-width:0.0920075"
       d="m 48.543169,11.898987 c -0.165801,0.06691 -0.194387,0.281173 -0.265512,0.426085 -0.0316,0.141526 -0.142084,0.289216 -0.09612,0.430795 0.314772,0.264398 0.61474,0.554197 0.943509,0.802905 0.126471,0.08353 0.241012,-0.08393 0.169907,-0.194945 -0.163509,-0.442648 -0.310345,-0.898445 -0.551145,-1.306592 -0.04803,-0.06861 -0.100314,-0.173566 -0.200636,-0.158247 z m -0.781527,1.423379 c -0.333351,0.423042 -0.702434,0.821215 -1.043678,1.235128 -0.05748,0.150495 0.152078,0.215901 0.251048,0.282973 0.567454,0.302047 1.14886,0.580178 1.687367,0.93345 0.10624,0.06853 0.285332,0.139963 0.357158,-0.01191 0.158644,-0.281914 0.284845,-0.600975 0.291073,-0.927631 -0.05026,-0.314219 -0.329583,-0.522815 -0.540496,-0.735488 -0.301516,-0.252915 -0.587557,-0.528082 -0.886698,-0.780442 -0.04063,-0.03172 -0.07329,-0.01005 -0.115774,0.0037 z m -1.735335,1.807211 c -0.500277,0.377322 -1.033931,0.709876 -1.538878,1.080426 -0.09839,0.136578 0.08491,0.21873 0.191606,0.249873 0.972256,0.297443 1.925995,0.654314 2.873121,1.02317 0.223557,0.09374 0.400428,-0.11446 0.54393,-0.25334 0.171318,-0.201611 0.368393,-0.406082 0.446003,-0.664156 -0.0078,-0.167878 -0.210217,-0.224922 -0.32104,-0.31922 -0.584494,-0.366766 -1.205201,-0.671909 -1.813105,-0.997082 -0.121338,-0.05016 -0.248036,-0.126047 -0.381637,-0.119671 z"
       id="path13602" />
    <path
       style="fill:#c55ab1;fill-opacity:1;stroke:#000000;stroke-width:0.0920075"
       d="m 49.860249,15.579209 c -0.148199,0.06323 -0.161671,0.259345 -0.223999,0.390976 -0.06132,0.154755 -0.108839,0.36642 0.04811,0.483498 0.205449,0.18034 0.396568,0.389149 0.638437,0.520356 0.138435,0.04736 0.200224,-0.129037 0.14052,-0.231007 -0.137586,-0.377614 -0.257556,-0.771922 -0.478178,-1.110721 -0.03014,-0.03638 -0.07638,-0.06199 -0.124894,-0.0531 z"
       id="path13641" />
    <path
       style="fill:#c55ab1;fill-opacity:1;stroke:#000000;stroke-width:0.0920075"
       d="m 49.201505,16.958376 c -0.188844,0.07379 -0.289642,0.278236 -0.419701,0.423783 -0.09806,0.150284 -0.234487,0.289137 -0.280776,0.464265 0.122444,0.209656 0.39596,0.244951 0.591175,0.364331 0.40105,0.188119 0.761696,0.459026 1.173948,0.621268 0.181544,0.0064 0.205661,-0.22688 0.234196,-0.362268 0.03167,-0.164809 0.05252,-0.3538 -0.07489,-0.48596 -0.32276,-0.39161 -0.743175,-0.68781 -1.136571,-1.003009 -0.0259,-0.0164 -0.05654,-0.02593 -0.08738,-0.02249 z"
       id="path13680" />
    <path
       style="fill:#00ffff;fill-opacity:0.565015;stroke:#000000;stroke-width:0.0920075"
       d="m 51.067082,18.757014 c -0.13889,0.08612 -0.129823,0.288422 -0.1958,0.423968 -0.07522,0.179308 0.163066,0.242649 0.263277,0.342503 0.153974,0.09475 0.285893,0.247676 0.460113,0.299667 0.151662,-0.0074 0.113784,-0.183912 0.05087,-0.267679 -0.146867,-0.264133 -0.281699,-0.541628 -0.473514,-0.776182 -0.02971,-0.02879 -0.06709,-0.02461 -0.104947,-0.02223 z"
       id="path13719" />
    <path
       style="fill:#ff0000;fill-opacity:0.565015;stroke:#000000;stroke-width:0.0920075"
       d="m 51.059131,18.758442 c -0.122063,0.08374 -0.119843,0.261329 -0.17449,0.388754 -0.05665,0.109589 0.01074,0.217275 0.110427,0.270404 0.186954,0.138217 0.368099,0.289532 0.571452,0.402536 0.144918,0.02971 0.168521,-0.150575 0.09403,-0.237252 -0.149522,-0.274982 -0.291346,-0.561314 -0.49063,-0.803725 -0.03146,-0.03066 -0.07107,-0.02461 -0.110787,-0.02064 z"
       id="path13967" />
    <path
       style="fill:#c55ab1;fill-opacity:1;stroke:#000000;stroke-width:0.0920075"
       d="m 51.059131,18.758442 c -0.122063,0.08374 -0.119843,0.261329 -0.17449,0.388754 -0.05665,0.109589 0.01074,0.217275 0.110427,0.270404 0.186954,0.138217 0.368099,0.289532 0.571452,0.402536 0.144918,0.02971 0.168521,-0.150575 0.09403,-0.237252 -0.149522,-0.274982 -0.291346,-0.561314 -0.49063,-0.803725 -0.03146,-0.03066 -0.07107,-0.02461 -0.110787,-0.02064 z"
       id="path14178" />
    <path
       style="fill:#ffffff;fill-opacity:1;stroke:#000000;stroke-width:0.130118"
       d="m 2.712198,14.758234 c -0.172707,0.107765 0.005,0.32438 0.02553,0.4699 0.144015,0.354225 0.226825,0.74885 0.455089,1.060503 0.163573,0.12663 0.240305,-0.120148 0.277899,-0.237808 0.03472,-0.180472 0.165608,-0.325676 0.200832,-0.501094 -0.04318,-0.259662 -0.347956,-0.35552 -0.51435,-0.523001 -0.144544,-0.08319 -0.26557,-0.273528 -0.445016,-0.2685 z"
       id="path14352" />
    <path
       style="fill:#ff0000;fill-opacity:0.52039;stroke:#000000;stroke-width:0.0162648"
       d="m 2.738802,14.826682 c -0.02962,0.01005 -0.03706,0.05027 -0.03321,0.07805 0.01881,0.104458 0.07297,0.198438 0.09774,0.301413 0.08374,0.220028 0.153043,0.445427 0.240324,0.664158 0.05291,0.124989 0.111234,0.249528 0.191879,0.359251 0.0136,0.02302 0.04922,0.03725 0.06806,0.01217 0.05786,-0.06043 0.08083,-0.144648 0.105042,-0.222621 0.03816,-0.159676 0.138351,-0.29509 0.188368,-0.450321 0.0123,-0.04675 -0.0217,-0.08924 -0.04275,-0.128137 -0.0697,-0.100859 -0.179904,-0.161687 -0.276693,-0.23286 -0.06576,-0.04345 -0.125336,-0.09499 -0.186934,-0.143828 -0.09796,-0.06659 -0.176847,-0.159623 -0.281879,-0.215847 -0.02233,-0.0093 -0.04563,-0.01958 -0.06996,-0.02143 z"
       id="path14904" />
    <path
       style="fill:#c55ab1;fill-opacity:1;stroke:#000000;stroke-width:0.0162648"
       d="m 2.72943,14.845917 c -0.02981,0.03969 -0.0032,0.09107 0.0077,0.132899 0.0937,0.270168 0.187907,0.540174 0.285867,0.808805 0.05874,0.153989 0.128177,0.305912 0.224697,0.440135 0.01196,0.02302 0.04225,0.01773 0.05469,-0.0026 0.07584,-0.08885 0.08785,-0.210529 0.131016,-0.315435 0.04666,-0.118137 0.114763,-0.227383 0.153657,-0.348563 0.0064,-0.04979 -0.02934,-0.09324 -0.05481,-0.132741 -0.07927,-0.09882 -0.193325,-0.159914 -0.292243,-0.236352 -0.126251,-0.09133 -0.244636,-0.192802 -0.366442,-0.289772 -0.04037,-0.03061 -0.08544,-0.05506 -0.134446,-0.06855 -0.0032,0.0037 -0.0065,0.0074 -0.0097,0.01111 z"
       id="path15485" />
  </g>
</svg>
