<svg width="16" height="16" viewBox="0 0 16 16" fill="none" xmlns="http://www.w3.org/2000/svg">
<g id="knot">
<path class="warning" fill-rule="evenodd" clip-rule="evenodd" d="M4.36431 2.67942C2.89924 3.65616 2.49067 5.62871 3.4472 7.10704L5.97553 11.0146C6.13756 11.265 6.06591 11.5994 5.81549 11.7614C5.56507 11.9234 5.23072 11.8518 5.06869 11.6014L2.54036 7.69381C1.2629 5.71949 1.80856 3.08516 3.76515 1.78071C4.26558 1.44708 4.85358 1.26904 5.45503 1.26904L6.34807 1.26904C6.64634 1.26904 6.88813 1.51084 6.88813 1.8091C6.88813 2.10737 6.64634 2.34916 6.34807 2.34916H5.45503C5.06683 2.34917 4.68731 2.46408 4.36431 2.67942ZM8.89701 3.44679C10.3753 2.49019 12.3479 2.89878 13.3246 4.3639C13.5399 4.68687 13.6548 5.06635 13.6548 5.45452V6.34769C13.6548 6.64596 13.8966 6.88775 14.1949 6.88775C14.4932 6.88775 14.7349 6.64596 14.7349 6.34769V5.45452C14.7349 4.85312 14.5569 4.26517 14.2233 3.76477C12.9189 1.80809 10.2845 1.26242 8.31022 2.53996L4.40295 5.06828C4.15254 5.23032 4.08089 5.56468 4.24293 5.81509C4.40497 6.06551 4.73933 6.13715 4.98974 5.97511L8.89701 3.44679ZM12.5528 8.89307C13.5093 10.3714 13.1007 12.3439 11.6357 13.3207C11.3127 13.536 10.9332 13.6509 10.545 13.6509H9.65191C9.35365 13.6509 9.11185 13.8927 9.11185 14.191C9.11185 14.4893 9.35365 14.7311 9.65191 14.7311H10.545C11.1464 14.7311 11.7344 14.553 12.2348 14.2194C14.1914 12.915 14.7371 10.2806 13.4596 8.30631L10.9313 4.39875C10.7693 4.14833 10.4349 4.07667 10.1845 4.2387C9.93407 4.40073 9.86242 4.73509 10.0245 4.98551L12.5528 8.89307ZM7.10283 12.5525C5.62451 13.5091 3.65193 13.1005 2.67522 11.6354C2.45991 11.3124 2.34501 10.9329 2.34501 10.5448L2.34501 9.6516C2.34501 9.35333 2.10322 9.11154 1.80495 9.11154C1.50669 9.11154 1.26489 9.35333 1.26489 9.6516L1.26489 10.5448C1.26489 11.1462 1.4429 11.7341 1.77649 12.2345C3.0809 14.1912 5.71531 14.7369 7.68962 13.4593L11.5969 10.931C11.8473 10.769 11.9189 10.4346 11.7569 10.1842C11.5949 9.93378 11.2605 9.86214 11.0101 10.0242L7.10283 12.5525Z" fill="#008800"/>
</g>
</svg>
