<?xml version="1.0" encoding="UTF-8" standalone="no"?>
<svg
   height="32"
   width="32"
   version="1.1"
   id="svg12675"
   sodipodi:docname="systemsettings.svg"
   inkscape:version="1.2.1 (9c6d41e, 2022-07-14)"
   xmlns:inkscape="http://www.inkscape.org/namespaces/inkscape"
   xmlns:sodipodi="http://sodipodi.sourceforge.net/DTD/sodipodi-0.dtd"
   xmlns="http://www.w3.org/2000/svg"
   xmlns:svg="http://www.w3.org/2000/svg">
  <defs
     id="defs12679" />
  <sodipodi:namedview
     id="namedview12677"
     pagecolor="#ffffff"
     bordercolor="#666666"
     borderopacity="1.0"
     inkscape:showpageshadow="2"
     inkscape:pageopacity="0.0"
     inkscape:pagecheckerboard="0"
     inkscape:deskcolor="#d1d1d1"
     showgrid="false"
     inkscape:zoom="7.375"
     inkscape:cx="6.1694915"
     inkscape:cy="16.067797"
     inkscape:window-width="1920"
     inkscape:window-height="1013"
     inkscape:window-x="1920"
     inkscape:window-y="27"
     inkscape:window-maximized="1"
     inkscape:current-layer="svg12675" />
  <linearGradient
     id="a"
     gradientUnits="userSpaceOnUse"
     x2="17"
     y1="-1"
     y2="18">
    <stop
       offset="0"
       stop-color="#fff"
       id="stop12639"
       style="stop-color:#00ff00;stop-opacity:1;" />
    <stop
       offset="1"
       stop-color="#fff"
       stop-opacity="0"
       id="stop12641"
       style="stop-color:#00ff00;stop-opacity:0;" />
  </linearGradient>
  <linearGradient
     id="b"
     gradientUnits="userSpaceOnUse"
     x1="9"
     x2="30"
     y1="9"
     y2="30">
    <stop
       offset="0"
       id="stop12644" />
    <stop
       offset="1"
       stop-opacity="0"
       id="stop12646" />
  </linearGradient>
  <rect
     fill="#2d3033"
     height="28"
     rx="1"
     width="28"
     x="2"
     y="2"
     id="rect12649" />
  <rect
     fill="url(#a)"
     height="28"
     opacity=".276"
     rx="1"
     width="28"
     x="2"
     y="2"
     id="rect12651" />
  <path
     d="M23.414 10.586L22 12H6l-.729.729L11 18.455V20H6l-.729.729L14.545 30H29c.554 0 1-.446 1-1V17.172z"
     fill="url(#b)"
     opacity=".4"
     id="path12653" />
  <path
     d="m 6,19 c -1.352,-0.02 -1.352,2.02 0,2 h 6 v -2 z"
     fill="#3daee9"
     id="path12655"
     style="fill:#00ae00;fill-opacity:1" />
  <circle
     cx="12"
     cy="20"
     fill="#fafafa"
     r="2"
     id="circle12657"
     style="fill:#00fa00;fill-opacity:1" />
  <path
     d="m 12,19 v 2 h 14 c 1.352,0.02 1.352,-2.02 0,-2 z"
     fill="#fcfcfc"
     opacity="0.2"
     id="path12659"
     style="fill:#00fc00;fill-opacity:1" />
  <path
     d="M 6,11 C 4.648,10.98 4.648,13.02 6,13 H 22 V 11 Z"
     fill="#3daee9"
     id="path12663"
     style="fill:#00ae00;fill-opacity:1" />
  <circle
     cx="22"
     cy="12"
     fill="#fafafa"
     r="2"
     id="circle12665"
     style="fill:#00fa00;fill-opacity:1" />
  <path
     d="m 22,11 v 2 h 4 c 1.352,0.02 1.352,-2.02 0,-2 z"
     fill="#fcfcfc"
     opacity="0.2"
     id="path12667"
     style="fill:#00fc00;fill-opacity:1" />
  <path
     d="M2 28v1c0 .554.446 1 1 1h26c.554 0 1-.446 1-1v-1c0 .554-.446 1-1 1H3c-.554 0-1-.446-1-1z"
     opacity=".3"
     id="path12671" />
  <path
     d="M2 4V3c0-.554.446-1 1-1h26c.554 0 1 .446 1 1v1c0-.554-.446-1-1-1H3c-.554 0-1 .446-1 1z"
     fill="#fff"
     opacity=".3"
     id="path12673"
     style="fill:#00ff00;fill-opacity:1" />
</svg>
