<?xml version="1.0" encoding="UTF-8" standalone="no"?>
<svg
   width="16"
   height="16"
   version="1.1"
   id="svg882"
   sodipodi:docname="view-app.svg"
   inkscape:version="1.1.1 (3bf5ae0, 2021-09-20)"
   xmlns:inkscape="http://www.inkscape.org/namespaces/inkscape"
   xmlns:sodipodi="http://sodipodi.sourceforge.net/DTD/sodipodi-0.dtd"
   xmlns="http://www.w3.org/2000/svg"
   xmlns:svg="http://www.w3.org/2000/svg">
  <defs
     id="defs886" />
  <sodipodi:namedview
     id="namedview884"
     pagecolor="#ffffff"
     bordercolor="#999999"
     borderopacity="1"
     inkscape:pageshadow="0"
     inkscape:pageopacity="0"
     inkscape:pagecheckerboard="0"
     showgrid="false"
     inkscape:zoom="31.625"
     inkscape:cx="8"
     inkscape:cy="8"
     inkscape:window-width="1920"
     inkscape:window-height="1016"
     inkscape:window-x="1920"
     inkscape:window-y="27"
     inkscape:window-maximized="1"
     inkscape:current-layer="svg882" />
  <g
     id="g1579"
     style="fill:#009900"
     transform="translate(0.04348458,-0.2055423)">
    <path
       style="stroke-width:1.37764;marker:none"
       d="m 13.751278,12.625061 c 0.763211,0 1.377638,0.614426 1.377638,1.377637 0,0.763212 -0.614427,1.377638 -1.377638,1.377638 -0.763212,0 -1.377638,-0.614426 -1.377638,-1.377638 0,-0.763211 0.614426,-1.377637 1.377638,-1.377637 z"
       id="path1250" />
    <path
       style="stroke-width:1.37764;marker:none"
       d="m 2.1617525,12.532801 c 0.763211,0 1.377638,0.614426 1.377638,1.377637 0,0.763212 -0.614427,1.377638 -1.377638,1.377638 -0.763212,0 -1.37763765,-0.614426 -1.37763765,-1.377638 0,-0.763211 0.61442565,-1.377637 1.37763765,-1.377637 z"
       id="path1254" />
    <path
       style="stroke-width:1.37764;marker:none"
       d="m 7.956515,12.532801 c 0.763211,0 1.377638,0.614426 1.377638,1.377637 0,0.763212 -0.614427,1.377638 -1.377638,1.377638 -0.763212,0 -1.377638,-0.614426 -1.377638,-1.377638 0,-0.763211 0.614426,-1.377637 1.377638,-1.377637 z"
       id="path1256" />
    <path
       style="stroke-width:1.37764;marker:none"
       d="m 13.751278,6.8740344 c 0.763211,0 1.377638,0.614426 1.377638,1.377637 0,0.763212 -0.614427,1.377638 -1.377638,1.377638 -0.763212,0 -1.377638,-0.614426 -1.377638,-1.377638 0,-0.763211 0.614426,-1.377637 1.377638,-1.377637 z"
       id="path1503" />
    <path
       style="stroke-width:1.37764;marker:none"
       d="m 2.1617525,6.7817745 c 0.763211,0 1.377638,0.614426 1.377638,1.377637 0,0.763212 -0.614427,1.377638 -1.377638,1.377638 -0.763212,0 -1.37763765,-0.614426 -1.37763765,-1.377638 0,-0.763211 0.61442565,-1.377637 1.37763765,-1.377637 z"
       id="path1505" />
    <path
       style="stroke-width:1.37764;marker:none"
       d="m 7.956515,6.7817745 c 0.763211,0 1.377638,0.614426 1.377638,1.377637 0,0.763212 -0.614427,1.377638 -1.377638,1.377638 -0.763212,0 -1.377638,-0.614426 -1.377638,-1.377638 0,-0.763211 0.614426,-1.377637 1.377638,-1.377637 z"
       id="path1507" />
    <path
       style="stroke-width:1.37764;marker:none"
       d="m 13.751278,1.1230086 c 0.763211,0 1.377638,0.614426 1.377638,1.377637 0,0.763212 -0.614427,1.377638 -1.377638,1.377638 -0.763212,0 -1.377638,-0.614426 -1.377638,-1.377638 0,-0.763211 0.614426,-1.377637 1.377638,-1.377637 z"
       id="path1511" />
    <path
       style="stroke-width:1.37764;marker:none"
       d="m 2.1617525,1.0307486 c 0.763211,0 1.377638,0.614426 1.377638,1.377637 0,0.763212 -0.614427,1.377638 -1.377638,1.377638 -0.763212,0 -1.37763765,-0.614426 -1.37763765,-1.377638 0,-0.763211 0.61442565,-1.377637 1.37763765,-1.377637 z"
       id="path1513" />
    <path
       style="stroke-width:1.37764;marker:none"
       d="m 7.956515,1.0307486 c 0.763211,0 1.377638,0.614426 1.377638,1.377637 0,0.763212 -0.614427,1.377638 -1.377638,1.377638 -0.763212,0 -1.377638,-0.614426 -1.377638,-1.377638 0,-0.763211 0.614426,-1.377637 1.377638,-1.377637 z"
       id="path1515" />
  </g>
</svg>
