<?xml version="1.0" encoding="UTF-8" standalone="no"?>
<svg
   inkscape:version="1.1 (c4e8f9e, 2021-05-24)"
   sodipodi:docname="document-import-symbolic.svg"
   viewBox="0 0 16 16"
   height="16"
   width="16"
   id="svg1"
   version="1.1"
   xmlns:inkscape="http://www.inkscape.org/namespaces/inkscape"
   xmlns:sodipodi="http://sodipodi.sourceforge.net/DTD/sodipodi-0.dtd"
   xmlns="http://www.w3.org/2000/svg"
   xmlns:svg="http://www.w3.org/2000/svg"
   xmlns:rdf="http://www.w3.org/1999/02/22-rdf-syntax-ns#"
   xmlns:cc="http://creativecommons.org/ns#"
   xmlns:dc="http://purl.org/dc/elements/1.1/">
  <metadata
     id="metadata1675">
    <rdf:RDF>
      <cc:Work
         rdf:about="">
        <dc:format>image/svg+xml</dc:format>
        <dc:type
           rdf:resource="http://purl.org/dc/dcmitype/StillImage" />
      </cc:Work>
    </rdf:RDF>
  </metadata>
  <defs
     id="defs1673" />
  <sodipodi:namedview
     inkscape:current-layer="svg1"
     inkscape:window-maximized="1"
     inkscape:window-y="27"
     inkscape:window-x="1920"
     inkscape:window-height="1016"
     inkscape:window-width="1920"
     inkscape:cy="8.6875"
     inkscape:cx="-4.65625"
     inkscape:zoom="16"
     showgrid="true"
     id="namedview"
     guidetolerance="10"
     gridtolerance="10"
     objecttolerance="10"
     pagecolor="#ffffff"
     bordercolor="#666666"
     borderopacity="1.0"
     inkscape:pageshadow="2"
     inkscape:pageopacity="0.0"
     inkscape:pagecheckerboard="0">
    <inkscape:grid
       id="grid"
       type="xygrid" />
  </sodipodi:namedview>
  <g
     id="g12059">
    <path
       style="opacity:0;fill:none;stroke-width:0.999977"
       d="M 0,5.2133972e-4 H 16 V 15.999785 H 0 Z"
       id="rect29018"
       inkscape:connector-curvature="0" />
    <path
       id="path11240"
       style="stroke-width:0.999977;opacity:1;fill:#009900"
       d="M 2.8125 0 C 2.3541 0.086996 1.99178 0.5334215 2 1 L 2 2 L 2 13 L 2 14 C 2.00005 14.523576 2.47642 14.9999 3 15 L 10.214844 15 C 9.884512 14.654007 9.5528144 14.305527 9.2207031 13.949219 C 8.9275765 13.634735 8.6361315 13.318129 8.3457031 13 L 4 13 L 4 2 L 9 2 L 9 5 L 12 5 L 12 10.380859 C 12.06232 10.453393 12.122932 10.527331 12.185547 10.599609 C 12.396401 10.843002 12.609216 11.084543 12.824219 11.324219 C 13.039222 11.563894 13.258123 11.800453 13.478516 12.035156 C 13.650628 12.218444 13.825608 12.398963 14 12.580078 L 14 4.5625 C 14.006 4.2984121 13.9025 4.0335413 13.71875 3.84375 L 10.15625 0.28125 C 9.96647 0.09755845 9.70156 -0.00609972 9.4375 0 L 3 0 C 2.9688 -0.000999954 2.93745 -0.000999954 2.90625 0 C 2.87505 -0.000999954 2.8437 -0.000999954 2.8125 0 z " />
    <path
       id="path11647"
       style="stroke-width:0.771732;opacity:1;fill:#009900"
       d="M 7.7597656 6.8417969 C 7.4515386 6.8417969 7.1543893 6.9137241 6.8789062 7.0097656 L 8.3320312 8.4648438 C 8.6310073 8.7638131 8.6310072 9.2381254 8.3320312 9.5371094 L 7.7851562 10.085938 C 7.4861793 10.384906 7.0099145 10.384906 6.7109375 10.085938 L 5.2558594 8.6308594 C 5.1598094 8.9063295 5.0898438 9.2054409 5.0898438 9.5136719 C 5.0898438 10.988947 6.2844906 12.185547 7.7597656 12.185547 C 8.0679936 12.185547 8.3670951 12.113607 8.6425781 12.017578 L 9.5488281 12.923828 L 11.242188 14.617188 L 11.960938 15.335938 L 14.419922 15.335938 L 14.419922 13.722656 C 14.185952 13.746098 13.958603 13.804827 13.746094 13.878906 L 12.816406 12.947266 L 11.195312 11.326172 L 10.265625 10.396484 C 10.361675 10.121014 10.431641 9.8219019 10.431641 9.5136719 C 10.431641 8.0383957 9.2350426 6.8417969 7.7597656 6.8417969 z " />
  </g>
</svg>
