<?xml version="1.0" encoding="UTF-8" standalone="no"?>
<svg
   version="1.1"
   id="svg1"
   width="16"
   height="16"
   viewBox="0 0 16 16"
   xmlns="http://www.w3.org/2000/svg"
   xmlns:svg="http://www.w3.org/2000/svg"
   xmlns:rdf="http://www.w3.org/1999/02/22-rdf-syntax-ns#"
   xmlns:cc="http://creativecommons.org/ns#"
   xmlns:dc="http://purl.org/dc/elements/1.1/">
  <metadata
     id="metadata592">
    <rdf:RDF>
      <cc:Work
         rdf:about="">
        <dc:format>image/svg+xml</dc:format>
        <dc:type
           rdf:resource="http://purl.org/dc/dcmitype/StillImage" />
      </cc:Work>
    </rdf:RDF>
  </metadata>
  <defs
     id="defs590" />
  <g
     aria-label="🀎"
     id="text16912"
     style="opacity:1;fill:#009900;font-size:14.3225px;line-height:1.8619px;letter-spacing:7.16121px;stroke-width:0.35806">
    <path
       d="m 11.186756,6.5892333 q -0.329417,0.11458 -0.51561,0.11458 -0.7161248,0 -1.1171548,-0.1861925 -0.2721275,-0.2721275 -1.117155,-1.77599 -0.830705,-1.518185 -1.346315,-1.9048925 -0.05729,-0.042968 -0.05729,-0.085935 0,-0.071612 0.05729,-0.085935 0.05729,-0.014323 0.3007725,-0.014323 0.071612,0 0.143225,0.028645 0.071613,0.014323 0.1289025,0.071612 0.071612,0.042968 0.11458,0.1002575 0.05729,0.042968 0.11458,0.143225 0.071612,0.085935 0.11458,0.1575475 0.042967,0.05729 0.1002575,0.1861925 0.05729,0.1289025 0.085935,0.200515 0.042968,0.05729 0.1002575,0.200515 0.071612,0.143225 0.1002575,0.200515 0.5872225,0.8163825 0.9023175,1.231735 0.3294175,0.40103 0.7590928,0.773415 0.429675,0.3580625 0.830705,0.4439975 0.04297,0.014323 0.300772,0.200515 z M 7.1621337,4.5554383 q 0,0.028645 -0.2148375,0.3580625 -0.2148375,0.3294175 -0.5299325,0.74477 -0.3150951,0.40103 -0.5299326,0.5585775 -0.68748,0.5585775 -0.887995,0.5585775 H 4.8132436 q 1.7759901,-1.54683 1.7759901,-2.63534 0,-0.042967 0,-0.085935 h 0.200515 q 0.143225,0 0.372385,0.5012875 z m 2.721275,3.72385 q 0.1002575,0 0.2721273,0.11458 0.186193,0.1002575 0.214838,0.143225 v 0.11458 q -0.07161,0.071612 -0.200515,0.071612 -0.07161,0 -0.3580628,-0.014322 -0.28645,-0.028645 -0.3580625,-0.028645 -0.5012875,0 -0.6731575,0.1289025 l -0.486965,0.5012876 q 0.028645,-0.05729 0.1575475,-0.4726426 -0.042968,-0.042967 -0.2721275,-0.042967 -0.1289025,0 -0.6731575,0.042967 0,0.2005151 -0.11458,0.5872226 L 7.3483262,9.2961859 q -0.05729,-0.143225 -0.1289025,-0.257805 -0.05729,-0.1145801 -0.11458,-0.1145801 -0.1289025,0 -0.5585775,0.085935 -0.4153526,0.085935 -0.5442551,0.085935 -0.2434825,0 -0.4726425,-0.2434826 l 1.5754751,-0.17187 -0.315095,-0.6158675 h 0.3580625 q 0.014323,0 0.22916,0.1002575 0,0.17187 0.1002575,0.51561 0.11458,-0.014323 1.03122,-0.1575475 0.143225,-0.4726425 0.17187,-0.85935 0.5299325,0.3007725 0.5299325,0.372385 l -0.22916,0.3580625 q 0.042967,0.042968 0.1575475,0.042968 0.071613,0 0.372385,-0.071613 0.3007725,-0.085935 0.372385,-0.085935 z M 6.3457512,9.6256034 q 0.8450275,-0.042967 1.403605,-0.143225 0.5585775,-0.1002575 0.80206,-0.17187 0.2434825,-0.071613 0.372385,-0.071613 0.2148375,0 0.5729,0.3580625 -0.1861925,0.34374 -0.3007725,0.5872226 -0.11458,0.22916 -0.1575475,0.300772 -0.028645,0.07161 -0.1002575,0.186193 -0.071613,0.11458 -0.2148375,0.34374 -0.1575475,-0.143225 -0.3007725,-0.143225 -0.2148375,0 -0.5012875,0.11458 v 0.315095 q 0.028645,0.01432 0.1575475,0.01432 0.014323,0 0.887995,-0.08594 0.8736725,-0.100257 0.9023175,-0.100257 0.1432248,0 0.6015448,0.300772 -0.100257,0.200515 -0.157547,0.644513 -0.05729,0.443997 -0.186193,0.845027 -0.11458,0.415353 -0.4296748,0.68748 -0.17187,-0.214837 -0.68748,-0.773415 0.429675,0.07161 0.486965,0.07161 0.2434825,0 0.3007725,-0.257805 0.05729,-0.243483 0.05729,-1.016898 -0.11458,-0.157547 -0.3867075,-0.157547 -0.945285,0 -1.5897975,0.186192 v 0.386708 q 0.085935,0.08593 0.1575475,0.08593 0.200515,0 0.45832,-0.128903 -0.071613,-0.05729 -0.071613,-0.22916 0.17187,0.01432 0.4153525,0.200515 0.2434825,0.17187 0.2434825,0.34374 0,0.22916 -0.17187,0.22916 -0.071612,0 -0.2434825,-0.186192 -0.1575475,-0.17187 -0.1861925,-0.186193 -0.085935,0.02864 -0.22916,0.07161 -0.143225,0.04297 -0.2721275,0.07161 -0.1289025,0.04297 -0.28645,0.08594 -0.143225,0.04297 -0.257805,0.07161 -0.11458,0.04297 -0.2148375,0.07161 -0.1002575,0.02865 -0.1575475,0.04297 -0.05729,0.01432 -0.071613,0.01432 -0.085935,0 -0.1861925,-0.08593 -0.085935,-0.08594 -0.11458,-0.186192 0.315095,-0.04297 0.91664,-0.17187 v -0.34374 q -0.014323,-0.128903 -0.1861925,-0.128903 -0.7304475,0 -1.1314775,0.11458 0,0.701803 0.028645,0.930963 l 0.014323,0.22916 q 0,0.02865 -0.042967,0.17187 -0.028645,0.143225 -0.028645,0.186192 0,0.05729 0.028645,0.08594 H 6.1309136 q -0.085935,0 -0.1002575,-0.100257 -0.085935,-1.188768 -0.2434825,-1.761668 0.1289025,0.01432 0.40103,0.07161 l 1.4322501,-0.214838 0.014323,-0.02865 v -0.315095 q -0.042968,-0.04297 -0.17187,-0.04297 -0.3580625,0 -0.45832,0.11458 -0.143225,-0.128903 -0.34374,-0.730448 -0.200515,-0.6158671 -0.315095,-0.7734146 z m 2.033795,1.0455426 q 0.1861925,0 0.315095,-0.272128 0.143225,-0.272127 0.143225,-0.5442546 0,-0.1002575 -0.05729,-0.257805 H 7.9355487 v 0.3580625 q 0.085935,0.042968 0.143225,0.042968 0.042968,0 0.085935,-0.014323 0.05729,-0.014323 0.085935,-0.014323 0.17187,0 0.2434825,0.1718696 -0.17187,0.128903 -0.5585775,0.214838 v 0.315095 z M 7.6204537,9.6972159 q -0.05729,0 -0.2721275,0.042967 -0.2148375,0.042968 -0.2721275,0.042968 -0.042967,0 -0.1861925,-0.071613 l 0.17187,1.1171546 q 0.3580625,-0.04297 0.5729,-0.11458 v -0.329417 q -0.042968,0 -0.071613,0 -0.028645,-0.01432 -0.071612,-0.01432 -0.028645,0 -0.05729,0 -0.085935,0 -0.1575475,0.01432 -0.042968,-0.04297 -0.11458,-0.128903 0.014322,-0.01432 0.4726425,-0.157547 -0.014323,-0.3723851 -0.014323,-0.4010301 z m 5.7290003,4.0819121 q 0,1.03122 -0.97393,1.03122 H 3.6244761 q -0.97393,0 -0.97393,-1.03122 V 2.2208707 q 0,-1.03122 0.97393,-1.03122 h 8.7510479 q 0.97393,0 0.97393,1.03122 z m -0.243483,0 V 2.2208707 q 0,-0.7877375 -0.730447,-0.7877375 H 3.6244761 q -0.7304475,0 -0.7304475,0.7877375 V 13.779128 q 0,0.80206 0.7304475,0.80206 h 8.7510479 q 0.730447,0 0.730447,-0.80206 z"
       style="font-family:'Noto Sans CJK SC';-inkscape-font-specification:'Noto Sans CJK SC'"
       id="path57161" />
  </g>
</svg>
