<?xml version="1.0" encoding="UTF-8" standalone="no"?>
<svg
   width="16.933413mm"
   height="16.933332mm"
   viewBox="0 0 16.933413 16.933332"
   version="1.1"
   id="svg8"
   sodipodi:docname="avatarp.svg"
   inkscape:version="1.2.1 (9c6d41e, 2022-07-14)"
   xmlns:inkscape="http://www.inkscape.org/namespaces/inkscape"
   xmlns:sodipodi="http://sodipodi.sourceforge.net/DTD/sodipodi-0.dtd"
   xmlns:xlink="http://www.w3.org/1999/xlink"
   xmlns="http://www.w3.org/2000/svg"
   xmlns:svg="http://www.w3.org/2000/svg"
   xmlns:rdf="http://www.w3.org/1999/02/22-rdf-syntax-ns#"
   xmlns:cc="http://creativecommons.org/ns#"
   xmlns:dc="http://purl.org/dc/elements/1.1/">
  <sodipodi:namedview
     id="namedview742"
     pagecolor="#ffffff"
     bordercolor="#000000"
     borderopacity="0.25"
     inkscape:showpageshadow="2"
     inkscape:pageopacity="0.0"
     inkscape:pagecheckerboard="0"
     inkscape:deskcolor="#d1d1d1"
     inkscape:document-units="mm"
     showgrid="false"
     inkscape:zoom="3.0390627"
     inkscape:cx="57.089971"
     inkscape:cy="38.992286"
     inkscape:window-width="1920"
     inkscape:window-height="1013"
     inkscape:window-x="1920"
     inkscape:window-y="27"
     inkscape:window-maximized="1"
     inkscape:current-layer="svg8" />
  <defs
     id="defs2">
    <linearGradient
       id="linearGradient874">
      <stop
         style="stop-color:#ff5500;stop-opacity:1;"
         offset="0"
         id="stop870" />
      <stop
         style="stop-color:#ffdd00;stop-opacity:1;"
         offset="1"
         id="stop872" />
    </linearGradient>
    <linearGradient
       xlink:href="#linearGradient874"
       id="linearGradient923"
       gradientUnits="userSpaceOnUse"
       gradientTransform="translate(-75.707705,-16.608428)"
       x1="76.191826"
       y1="25.075096"
       x2="80.766144"
       y2="25.075096" />
  </defs>
  <metadata
     id="metadata5">
    <rdf:RDF>
      <cc:Work
         rdf:about="">
        <dc:format>image/svg+xml</dc:format>
        <dc:type
           rdf:resource="http://purl.org/dc/dcmitype/StillImage" />
      </cc:Work>
    </rdf:RDF>
  </metadata>
  <rect
     style="fill:url(#linearGradient923);fill-opacity:1;stroke-width:1"
     id="rect921"
     width="16.933332"
     height="16.933332"
     x="3.1789145e-07"
     y="3.5405274e-06"
     rx="1.3229166"
     ry="1.3229166" />
  <path
     id="rect905"
     style="fill:#ffdd00;fill-opacity:1;stroke-width:1"
     d="M 3.7726376,6.643664 7.9375273,1e-6 h 7.6729097 c 0.7329,0 1.32292,0.590021 1.32292,1.322917 v 14.287499 c 0,0.732896 -0.59002,1.322917 -1.32292,1.322917 H 1.3229416 c -0.73289497,0 -1.322915966667,-0.590021 -1.322915966667,-1.322917 V 14.684376 L 4.2097176,12.614889 5.7512973,9.633243 c 0,0 -2.3679497,-2.368613 -1.9786597,-2.989579 z" />
  <path
     style="fill:#000000;stroke-width:0.367301"
     d="m 2.7314126,16.874971 c -0.0053,-0.03207 -0.0096,-0.156268 -0.0095,-0.275993 1.39e-4,-0.289661 0.0399,-0.529354 0.140602,-0.847425 0.02571,-0.08124 0.06388,-0.203694 0.08481,-0.272108 0.02094,-0.06842 0.05563,-0.178684 0.07713,-0.245037 0.02149,-0.06635 0.0391,-0.13131 0.0391,-0.144345 0,-0.01304 0.0171,-0.05749 0.038,-0.09877 0.0209,-0.04129 0.0462,-0.123273 0.0562,-0.182185 0.022,-0.129943 0.0468,-0.225438 0.0986,-0.379219 0.0216,-0.06414 0.0513,-0.158601 0.0659,-0.209913 0.0953,-0.333938 0.14522,-0.425242 0.25167,-0.460374 0.0551,-0.01818 0.29466,-0.0119 0.32778,0.0086 0.009,0.0058 0.017,0.04892 0.017,0.09588 0,0.08599 -0.0246,0.155038 -0.0682,0.191191 -0.013,0.01076 -0.0283,0.05224 -0.034,0.09216 -0.006,0.03993 -0.0227,0.08658 -0.0378,0.103685 -0.0304,0.03449 -0.12186,0.250745 -0.17851,0.422032 -0.0402,0.121463 -0.08,0.30057 -0.14144,0.635306 -0.022,0.119729 -0.0706,0.30865 -0.10802,0.419824 -0.0375,0.111175 -0.0828,0.265096 -0.1007,0.342045 -0.0179,0.07695 -0.0579,0.202901 -0.0888,0.279883 -0.0533,0.132897 -0.12245,0.347632 -0.163991,0.509267 l -0.01895,0.07386 h -0.11867 -0.118678 z m -1.386075,-0.06523 c -0.05215,-0.02134 -0.09174,-0.07742 -0.09174,-0.129962 0,-0.078 0.05299,-0.170376 0.115061,-0.200561 0.12692,-0.06172 0.257176,-0.01848 0.302589,0.100424 0.06112,0.160032 -0.0063,0.245595 -0.192157,0.24381 -0.05646,-3.67e-4 -0.116651,-0.0067 -0.133756,-0.0137 z m 6.0405697,-0.784422 -0.0697,-0.03722 -0.0114,-0.114389 c -0.006,-0.06291 -0.0187,-0.173861 -0.0276,-0.246554 -0.009,-0.07269 -0.0171,-0.202136 -0.0183,-0.287655 -0.003,-0.225919 0.0372,-0.286575 0.23061,-0.34714 0.1047,-0.0328 0.4773,-0.238161 0.58076,-0.320106 0.0385,-0.03049 0.10327,-0.07824 0.14396,-0.106135 0.39301,-0.269422 0.72555,-0.562198 0.97657,-0.859788 0.2386,-0.282866 0.35927,-0.464364 0.5093,-0.76601 0.0512,-0.102961 0.1248,-0.2455 0.16352,-0.316752 0.12763,-0.234801 0.2029297,-0.499834 0.2276397,-0.801249 0.0195,-0.238407 -7.4e-4,-1.19383 -0.026,-1.21899 -0.0299,-0.02986 -0.2529397,0.148324 -0.2771897,0.22138 -0.005,0.01403 -0.0282,0.03372 -0.0524,0.04373 -0.0242,0.01 -0.0588,0.03836 -0.077,0.063 -0.0182,0.02465 -0.0814,0.07601 -0.14029,0.114135 -0.0589,0.03813 -0.11194,0.07705 -0.11778,0.08649 -0.0191,0.03093 -0.0979,0.06288 -0.17322,0.07026 -0.0537,0.0053 -0.0828,0.0177 -0.10629,0.04542 -0.0332,0.03921 -0.11743,0.07088 -0.28112,0.10569 -0.1077,0.02292 -0.73705,0.02817 -0.93295,0.0078 -0.16207,-0.01686 -0.20213,-0.03589 -0.20213,-0.09594 v -0.04629 l -0.13501,-7.35e-4 c -0.12605,-7.34e-4 -0.13608,0.0018 -0.15127,0.03497 -0.009,0.01965 -0.0238,0.0357 -0.0329,0.0357 -0.0243,0 -0.0631,0.102319 -0.0513,0.135185 0.0261,0.07238 0.19121,0.280526 0.37276,0.469954 l 0.19989,0.208575 -0.002,0.08211 c -0.003,0.141076 -0.0121,0.15734 -0.0873,0.164719 -0.0971,0.0095 -0.22523,-0.02182 -0.35856,-0.08771 -0.18843,-0.09311 -0.21332,-0.07134 -0.1843,0.16119 0.014,0.112423 0.033,0.185248 0.0676,0.259072 0.0345,0.07372 0.0485,0.127482 0.0498,0.190563 l 0.002,0.08787 -0.093,-0.0022 c -0.0902,-0.0018 -0.095,-0.0042 -0.15992,-0.07596 -0.0368,-0.04066 -0.0958,-0.123703 -0.131,-0.18455 -0.0353,-0.06084 -0.0839,-0.138616 -0.10814,-0.172823 -0.0474,-0.06685 -0.093,-0.244159 -0.11997,-0.466472 -0.0262,-0.215407 -0.0869,-0.584559 -0.14459,-0.87852 -0.0245,-0.124651 -0.18583,-0.579645 -0.25369,-0.71526 -0.0743,-0.148404 -0.23104,-0.310979 -0.2999,-0.310979 -0.0763,0 -0.10291,0.04533 -0.0906,0.154421 0.016,0.141837 0.0509,0.295273 0.096,0.422499 0.0224,0.06326 0.0463,0.153498 0.053,0.200531 0.007,0.04704 0.0208,0.106514 0.0312,0.13217 0.0304,0.07496 0.0397,0.439938 0.0263,1.033154 -0.0158,0.700391 -0.007,1.489555 0.0166,1.533638 0.01,0.01778 0.0221,0.08773 0.0277,0.15549 0.006,0.07005 0.0263,0.164587 0.0475,0.219142 0.0205,0.05277 0.0373,0.120126 0.0373,0.149679 v 0.05373 l 0.0894,0.01094 c 0.0492,0.006 0.1209,0.01216 0.15938,0.01359 l 0.07,0.0026 -0.006,-0.209913 c -0.003,-0.115453 -0.0164,-0.255395 -0.0295,-0.310982 -0.013,-0.05559 -0.0245,-0.135714 -0.0253,-0.17806 -0.002,-0.07094 0.003,-0.0798 0.0512,-0.112729 0.0591,-0.03997 0.14622,-0.0457 0.23456,-0.01543 0.0671,0.02299 0.10828,0.09339 0.16082,0.275115 0.0368,0.127332 0.0975,0.557548 0.0899,0.637513 -0.002,0.02138 -0.005,0.145242 -0.007,0.275248 l -0.003,0.236376 -0.0544,0.05558 c -0.0823,0.08403 -0.12493,0.101411 -0.24888,0.101411 -0.10113,0 -0.11404,-0.0037 -0.15238,-0.04409 -0.023,-0.02424 -0.0664,-0.05366 -0.0963,-0.06535 -0.0772,-0.03016 -0.23197,-0.181597 -0.26592,-0.260174 -0.0158,-0.03655 -0.04,-0.07077 -0.0539,-0.0761 -0.0139,-0.0053 -0.0387,-0.04118 -0.0553,-0.07967 -0.0165,-0.03849 -0.0635,-0.109198 -0.10439,-0.157131 -0.0409,-0.04794 -0.083,-0.116919 -0.0935,-0.153301 -0.0111,-0.03839 -0.0351,-0.07662 -0.0572,-0.0911 -0.0225,-0.01473 -0.0452,-0.05133 -0.0554,-0.08926 -0.0222,-0.08247 -0.0703,-0.178262 -0.11425,-0.227741 -0.019,-0.02138 -0.0537,-0.08435 -0.0771,-0.139942 -0.0234,-0.05559 -0.0622,-0.122061 -0.0863,-0.147717 -0.0241,-0.02567 -0.0525,-0.07464 -0.0632,-0.108842 -0.0107,-0.0342 -0.0246,-0.0692 -0.0309,-0.07775 -0.006,-0.0086 -0.0195,-0.04038 -0.0292,-0.07074 -0.0169,-0.05237 -0.10019,-0.222496 -0.12531,-0.255788 -0.0204,-0.02707 -0.0631,-0.175088 -0.0636,-0.220608 -2.7e-4,-0.02406 -0.0108,-0.05731 -0.0233,-0.07391 -0.016,-0.02112 -0.0229,-0.07045 -0.0229,-0.164327 0,-0.131292 0.001,-0.135446 0.0544,-0.195279 0.0299,-0.03361 0.0544,-0.06528 0.0544,-0.07035 10e-6,-0.0051 0.0248,-0.02255 0.0552,-0.03887 0.0513,-0.02759 0.16638,-0.157936 0.20631,-0.233699 0.0449,-0.08511 0.0902,-0.857717 0.0525,-0.895373 -0.0144,-0.0144 -0.0488,-0.01421 -0.15324,7.35e-4 -0.12637,0.01825 -0.13948,0.0238 -0.21283,0.08975 -0.0825,0.07416 -0.21226,0.246294 -0.21226,0.28154 0,0.01146 -0.0122,0.03951 -0.0272,0.06234 -0.0302,0.04604 -0.0326,0.134876 -0.021,0.773723 0.0107,0.589183 0.0333,0.759221 0.11181,0.840777 0.0406,0.04213 0.0561,0.08979 0.13143,0.403817 0.0824,0.343213 0.0882,0.360175 0.16289,0.470689 0.0426,0.06305 0.0781,0.133231 0.0788,0.155948 7.4e-4,0.0227 1.8e-4,0.191584 -0.001,0.375257 -0.003,0.391976 -0.013,0.435728 -0.0987,0.435728 -0.0409,0 -0.0747,-0.01745 -0.14326,-0.07386 -0.28613,-0.235484 -0.27723,-0.226169 -0.31401,-0.328723 -0.0192,-0.05363 -0.0414,-0.133668 -0.0492,-0.177877 -0.008,-0.04421 -0.0246,-0.132856 -0.0374,-0.196994 -0.0127,-0.06414 -0.0313,-0.179592 -0.0412,-0.256559 -0.01,-0.07697 -0.0314,-0.192422 -0.0477,-0.25656 -0.0163,-0.06414 -0.0371,-0.190089 -0.0462,-0.279883 -0.009,-0.0898 -0.0263,-0.258818 -0.0382,-0.375605 -0.0126,-0.124133 -0.032,-0.232369 -0.0466,-0.26056 -0.0233,-0.04512 -0.0292,-0.04764 -0.0906,-0.03931 -0.12933,0.01756 -0.21361,0.04148 -0.25173,0.07146 -0.0213,0.01675 -0.0721,0.03607 -0.11291,0.04286 -0.10293,0.01719 -0.22769,0.07631 -0.40499,0.191959 -0.0831,0.05424 -0.23166,0.137862 -0.33001,0.185832 -0.0983,0.04797 -0.23129,0.12187 -0.29543,0.164231 -0.0641,0.04236 -0.148102,0.09272 -0.186588,0.111924 -0.03848,0.01921 -0.09446,0.05789 -0.124394,0.08599 -0.02994,0.0281 -0.07191,0.05615 -0.09329,0.06234 -0.02138,0.0062 -0.0845,0.04103 -0.140261,0.07742 -0.05577,0.0364 -0.123108,0.07093 -0.149653,0.07676 -0.02656,0.0058 -0.06488,0.02847 -0.0852,0.05035 -0.02031,0.02185 -0.09475,0.06657 -0.165417,0.09935 -0.07066,0.03276 -0.139938,0.07106 -0.153943,0.08507 -0.01399,0.01399 -0.06281,0.04198 -0.108446,0.06217 -0.04564,0.02017 -0.108071,0.05583 -0.138744,0.07923 -0.05547,0.04231 -0.145829,0.09094 -0.458042,0.246535 -0.225196,0.112229 -0.49002697,0.2744 -0.68105997,0.417052 -0.08825,0.0659 -0.193204,0.138359 -0.233236,0.161021 -0.143424,0.0812 -0.306568,0.181862 -0.337116,0.208002 -0.01712,0.01462 -0.05034,0.03884 -0.07386,0.05378 l -0.04275999667,0.02718 V 14.82043 14.383669 L 0.04274733,14.361709 c 0.05476,-0.02814 0.544553,-0.215007 0.656947,-0.250657 0.222231,-0.07049 0.62575497,-0.260593 0.85422697,-0.402426 0.06361,-0.03949 0.140103,-0.07638 0.169994,-0.08199 0.0299,-0.0056 0.09741,-0.02971 0.150032,-0.05358 0.118539,-0.05375 0.949571,-0.527764 1.088135,-0.620669 0.119195,-0.07992 0.249985,-0.151118 0.427605,-0.232787 0.0983,-0.04522 0.22271,-0.102977 0.27637,-0.128346 0.0826,-0.03905 0.12076,-0.04703 0.24879,-0.05197 0.14838,-0.0057 0.15202,-0.0068 0.19393,-0.05619 0.0583,-0.06874 0.0746,-0.118308 0.15936,-0.487001 0.0197,-0.08552 0.0505,-0.199003 0.0684,-0.252181 0.018,-0.05318 0.0329,-0.112655 0.0332,-0.132169 3e-4,-0.0195 0.0105,-0.05297 0.0228,-0.07435 0.013,-0.02266 0.0224,-0.08219 0.0228,-0.142814 3e-4,-0.05717 0.007,-0.121478 0.0153,-0.14291 0.008,-0.02141 0.12059,-0.144452 0.24987,-0.273382 0.3230197,-0.322122 0.3213797,-0.318324 0.3261697,-0.754788 0.002,-0.179592 -0.003,-0.445481 -0.0115,-0.590866 -0.0138,-0.242048 -0.0194,-0.275476 -0.0661,-0.396501 -0.028,-0.07269 -0.0668,-0.191643 -0.0861,-0.264335 C 4.7072376,8.46029 4.6865976,8.423857 4.5473976,8.449972 c -0.0425,0.008 -0.0654,0.0026 -0.10228,-0.02362 -0.0676,-0.04816 -0.25956,-0.283068 -0.3894,-0.476584 -0.0609,-0.09077 -0.13748,-0.194063 -0.17018,-0.229537 -0.0622,-0.06751 -0.1207,-0.185167 -0.20883,-0.420236 -0.0438,-0.116684 -0.0556,-0.176683 -0.0709,-0.35763 -0.0207,-0.245595 -0.0112,-0.541103 0.0252,-0.784961 0.0397,-0.266051 0.0553,-0.3054 0.16895,-0.425342 l 0.0715,-0.07549 V 5.511253 c 0,-0.168903 -0.0199,-0.276218 -0.0735,-0.395634 -0.0782,-0.174229 -0.0963,-0.291968 -0.11599,-0.751384 -0.0147,-0.343841 -0.0145,-0.464804 10e-4,-0.589425 0.0108,-0.08624 0.0227,-0.377857 0.0266,-0.648036 0.005,-0.358159 0.0131,-0.515342 0.0296,-0.580229 0.0124,-0.04895 0.072,-0.190409 0.13235,-0.314362 0.21061,-0.432375 0.4868,-0.774596 0.82541,-1.022734 0.0649,-0.04756 0.1313897,-0.103086 0.1477197,-0.123383 0.0573,-0.07118 0.28345,-0.254753 0.38024,-0.308636 0.0538,-0.02993 0.1144,-0.06742 0.13475,-0.08331 0.0663,-0.05179 0.33476,-0.182387 0.42108,-0.204873 0.0463,-0.01208 0.12726,-0.04573 0.17981,-0.07479 0.0525,-0.02905 0.16902,-0.07782 0.25882,-0.108332 0.20038,-0.0681 0.57498,-0.166203 0.63461,-0.166203 0.0241,0 0.0788,-0.01036 0.12147,-0.02303 0.0969,-0.02876 0.40652,-0.07069 0.57963,-0.07847 0.0719,-0.0033 0.13798,-0.01319 0.14694,-0.02215 0.0108,-0.0108 0.22958,-0.01627 0.65123,-0.01627 0.52673,0 0.64082,0.0038 0.66939,0.0224 0.019,0.01234 0.0974,0.03074 0.17437,0.04091 0.22642,0.0299 0.38675,0.0717 0.52418,0.136625 0.0709,0.0335 0.15517,0.06811 0.1873,0.07695 0.0321,0.0089 0.0852,0.03728 0.1178997,0.06319 0.0327,0.02593 0.0985,0.06171 0.14619,0.07956 0.0477,0.01785 0.0957,0.04324 0.10663,0.05645 0.011,0.01319 0.0773,0.0515 0.14734,0.0851 0.13983,0.06705 0.28949,0.160533 0.59268,0.370181 0.17691,0.122333 0.34537,0.302167 0.51821,0.553202 0.0301,0.04371 0.0739,0.100148 0.0973,0.125426 0.0235,0.02527 0.0471,0.05986 0.0525,0.07685 0.005,0.01701 0.0256,0.05548 0.0448,0.08552 0.0532,0.08309 0.0805,0.19147 0.0997,0.396978 0.01,0.102771 0.0285,0.218225 0.0419,0.25656 0.0134,0.03834 0.0308,0.115182 0.0387,0.170769 0.008,0.05559 0.0238,0.160543 0.0353,0.233236 0.0395,0.248582 0.0401,1.155113 0.001,1.516033 -0.0129,0.119726 -0.0308,0.284159 -0.0396,0.365402 -0.009,0.08124 -0.0254,0.179202 -0.0368,0.217688 -0.0114,0.03848 -0.0326,0.111953 -0.047,0.163265 -0.038,0.134811 -0.0561,0.177866 -0.0943,0.223639 -0.0523,0.06267 -0.12966,0.220674 -0.14578,0.297825 -0.008,0.03817 -0.0264,0.107884 -0.041,0.154921 -0.0146,0.04704 -0.0352,0.183477 -0.0459,0.303206 -0.0258,0.290219 -0.0366,0.366563 -0.0721,0.509902 -0.0165,0.06665 -0.0265,0.126873 -0.0221,0.133837 0.004,0.0069 -0.006,0.102866 -0.0219,0.213126 -0.0163,0.11026 -0.0407,0.284713 -0.054,0.387679 -0.0303,0.233008 -0.10655,0.575611 -0.15567,0.699087 -0.0204,0.05131 -0.0517,0.150538 -0.0695,0.220505 -0.044,0.172866 -0.14209,0.457385 -0.20013,0.580272 -0.11726,0.24831 -0.26064,0.584493 -0.30173,0.707484 -0.0172,0.05131 -0.0799,0.201747 -0.13939,0.334302 l -0.10823,0.241012 0.007,0.124395 c 0.006,0.116875 0.0509,0.45979 0.0649,0.500612 0.004,0.01201 0.0254,0.0155 0.0602,0.0098 0.0385,-0.0062 0.0744,0.0015 0.12642,0.02755 0.0895,0.04472 0.27839,0.24038 0.30059,0.311434 0.009,0.02883 0.0197,0.164107 0.0238,0.300625 0.007,0.225934 0.004,0.261107 -0.0298,0.391737 -0.0508,0.195452 -0.18213,0.536935 -0.28617,0.743982 -0.12111,0.241016 -0.37803,0.655687 -0.50033,0.807515 -0.0569,0.07058 -0.1434897,0.193189 -0.1925297,0.272471 -0.049,0.07928 -0.10815,0.166075 -0.13136,0.19288 -0.0232,0.02681 -0.0646,0.08022 -0.0921,0.118705 -0.0748,0.105018 -0.37331,0.417194 -0.44825,0.468826 -0.0361,0.0249 -0.12813,0.106286 -0.20442,0.180844 -0.24708,0.241463 -0.40778,0.363459 -0.59728,0.453407 -0.0409,0.01943 -0.1109,0.06831 -0.15549,0.108625 -0.0446,0.04031 -0.11594,0.097 -0.15856,0.125974 -0.0426,0.02898 -0.12233,0.0862 -0.17715,0.127177 -0.0642,0.04796 -0.11535,0.0745 -0.14369,0.0745 -0.0658,0 -0.0911,0.06204 -0.0932,0.228575 -0.001,0.07526 -0.006,0.17875 -0.0116,0.229985 -0.01,0.0918 -0.011,0.09365 -0.0799,0.127361 -0.0917,0.04481 -0.1635,0.04447 -0.24903,-0.0011 z m 1.37633,-5.108411 c 0.28636,-0.053 0.51795,-0.139677 0.62516,-0.233967 0.036,-0.03162 0.10765,-0.08003 0.1593,-0.10756 0.0516,-0.02751 0.10039,-0.06218 0.10833,-0.077 0.008,-0.01484 0.0336,-0.03718 0.057,-0.04967 0.0428,-0.02281 0.24797,-0.283303 0.2953697,-0.374956 0.014,-0.02696 0.0456,-0.07701 0.0704,-0.111182 0.0248,-0.03416 0.045,-0.07437 0.045,-0.08932 0,-0.01495 0.0216,-0.06813 0.048,-0.118176 0.1885,-0.3571 0.28746,-0.555336 0.31955,-0.640072 0.0205,-0.05399 0.0548,-0.132996 0.0764,-0.175567 0.0433,-0.08536 0.14165,-0.351771 0.25785,-0.698084 0.0922,-0.274847 0.17829,-0.66549 0.19914,-0.903673 0.008,-0.09734 0.0203,-0.225967 0.0261,-0.28583 0.0177,-0.181417 0.026,-0.621072 0.0239,-1.262089 -0.002,-0.427601 0.001,-0.414573 -0.0957,-0.418356 -0.0559,-0.0022 -0.16074,-0.01899 -0.20213,-0.0324 -0.0197,-0.0064 -0.019,-0.01073 0.004,-0.02792 0.0265,-0.01954 0.0265,-0.02083 0,-0.03107 -0.0152,-0.0059 -0.16438,-0.01473 -0.33146,-0.01969 -0.3231,-0.0096 -0.37701,-0.0015 -0.36212,0.05565 0.007,0.02531 -0.004,0.03063 -0.0753,0.03865 -0.1967397,0.02208 -0.3774997,0.0288 -0.4998397,0.01862 l -0.13132,-0.01094 -0.01,-0.07262 c -0.0278,-0.201509 -0.0318,-0.304511 -0.0165,-0.422473 0.0134,-0.102716 0.0283,-0.12439 0.0858,-0.12439 0.0361,0 0.0446,-0.0074 0.0486,-0.04276 0.005,-0.04051 0.0102,-0.0433 0.10599,-0.05307 0.29948,-0.03056 0.5293297,-0.04842 0.5960697,-0.04634 0.0542,0.0018 0.0733,-0.0029 0.0686,-0.01715 -0.004,-0.01249 -0.029,-0.0177 -0.0691,-0.01451 -0.0424,0.0033 -0.0706,-0.0033 -0.0879,-0.02042 -0.014,-0.01399 -0.0412,-0.02325 -0.0605,-0.02057 -0.0229,0.0033 -0.0351,-0.0033 -0.0351,-0.01814 0,-0.01774 0.025,-0.02402 0.10884,-0.02736 0.0599,-0.0026 0.13876,-0.01142 0.17534,-0.02005 0.0978,-0.0231 0.13179,-3.67e-4 0.1252,0.08332 l -0.005,0.06488 0.0855,0.01065 c 0.30663,0.0382 0.28797,0.03368 0.28319,0.0686 -0.005,0.04061 0.0217,0.06415 0.0822,0.07098 0.0435,0.0049 0.047,0.01006 0.0513,0.07718 0.005,0.07171 0.005,0.07194 0.0697,0.08063 0.0358,0.0048 0.0671,0.0066 0.0697,0.004 0.0133,-0.01337 0.005,-0.41783 -0.0102,-0.465869 -0.009,-0.03085 -0.0243,-0.07978 -0.0331,-0.108688 -0.009,-0.02891 -0.0433,-0.161447 -0.0767,-0.294539 -0.0335,-0.133091 -0.0685,-0.256324 -0.0779,-0.273852 -0.009,-0.01752 -0.0419,-0.103641 -0.0723,-0.191367 -0.0762,-0.22001 -0.19327,-0.426488 -0.31226,-0.550863 -0.0539,-0.05633 -0.098,-0.107402 -0.098,-0.113485 0,-0.0061 -0.0182,-0.01932 -0.0403,-0.02942 -0.042,-0.0191 -0.13194,-0.08819 -0.21045,-0.161561 -0.0252,-0.02351 -0.0552,-0.04276 -0.0667,-0.04276 -0.0205,0 -0.1065897,-0.03644 -0.3016097,-0.127637 -0.0668,-0.03122 -0.15123,-0.05347 -0.26434,-0.0696 -0.0914,-0.01304 -0.20469,-0.03056 -0.25172,-0.03897 -0.13304,-0.02376 -1.04956,-0.0335 -1.20913,-0.01289 -0.0747,0.0097 -0.26181,0.03063 -0.41575,0.0466 -0.29873,0.031 -0.37702,0.04608 -0.53644,0.103406 -0.0556,0.01998 -0.22002,0.07403 -0.36541,0.120082 -0.14538,0.04606 -0.31486,0.105254 -0.37661,0.131549 -0.12853,0.05473 -0.29306,0.161568 -0.33849,0.219811 -0.017,0.02182 -0.0483,0.05717 -0.0696,0.07855 -0.0563,0.05673 -0.13478,0.177142 -0.14692,0.225519 -0.006,0.02307 -0.0246,0.06101 -0.0419,0.08432 -0.0277,0.03741 -0.0313,0.06557 -0.0306,0.240134 3.7e-4,0.108765 0.008,0.210305 0.0157,0.225644 0.0231,0.04324 0.033,0.322211 0.0145,0.411549 -0.018,0.08728 -0.1042,0.259256 -0.16089,0.321094 -0.0231,0.02516 -0.0416,0.07398 -0.0526,0.138293 -0.009,0.05468 -0.0289,0.112662 -0.0436,0.128842 -0.0147,0.0162 -0.0306,0.0589 -0.0354,0.09494 -0.008,0.05759 -0.014,0.06613 -0.0521,0.0705 l -0.0434,0.005 0.004,0.134965 c 0.004,0.106315 0.009,0.133966 0.0264,0.13026 0.0352,-0.0076 0.0897,-0.0047 0.31241,0.01612 l 0.20992,0.01969 v 0.06997 c 0,0.05784 0.005,0.06919 0.027,0.06544 0.0149,-0.0026 0.0429,0.004 0.0622,0.01451 0.0193,0.01047 0.0702,0.02016 0.1129,0.02152 0.0428,0.0015 0.0957,0.0075 0.1176,0.01363 0.0636,0.01781 0.11194,-0.03151 0.11398,-0.116313 l 0.002,-0.0688 0.0622,-0.0022 c 0.0342,-0.0011 0.27034,-0.0071 0.52475,-0.01304 0.51977,-0.01201 0.48196,-0.02039 0.48461,0.107086 l 0.001,0.06375 0.13217,0.0084 c 0.0727,0.0046 0.14091,0.0018 0.1516,-0.0058 0.0227,-0.01656 0.026,-0.162435 0.004,-0.196451 -0.009,-0.01421 -0.009,-0.02979 0.001,-0.04138 0.0238,-0.02865 0.004,-0.03361 -0.21236,-0.05275 -0.22273,-0.01972 -0.25076,-0.0321 -0.22518,-0.09937 0.0222,-0.05832 0.01,-0.07158 -0.0665,-0.07113 -0.0358,2.09e-4 -0.15608,-0.0038 -0.26726,-0.009 -0.23361,-0.01084 -0.29667,0.0026 -0.2786,0.0593 0.0238,0.07471 0.0185,0.08138 -0.0685,0.08636 l -0.0828,0.0047 0.005,-0.06694 0.005,-0.06693 h -0.0933 -0.0933 l 0.005,0.05974 c 0.003,0.03578 -0.005,0.07491 -0.02,0.09755 -0.0136,0.02079 -0.0227,0.04964 -0.0203,0.06409 0.004,0.02086 -0.0132,0.02894 -0.081,0.03907 -0.047,0.007 -0.117,0.0108 -0.15549,0.0083 -0.0658,-0.0042 -0.0697,-0.0069 -0.0651,-0.04615 0.004,-0.03703 -7.3e-4,-0.04226 -0.0466,-0.04665 l -0.0515,-0.005 -0.005,-0.146322 c -0.005,-0.154416 0.004,-0.178992 0.0631,-0.179756 0.0305,-3.68e-4 0.0353,-0.0098 0.0395,-0.0778 0.003,-0.04254 0.012,-0.08591 0.0207,-0.09638 0.009,-0.01047 0.0485,-0.02112 0.0884,-0.02373 0.0641,-0.0042 0.0733,-0.0093 0.078,-0.04356 0.007,-0.05379 0.0306,-0.07775 0.0753,-0.07775 0.0527,0 0.0986,-0.02736 0.0888,-0.05292 -0.005,-0.01377 0.0247,-0.04132 0.0842,-0.07751 0.0749,-0.0455 0.10782,-0.05615 0.1735,-0.05615 0.068,0 0.0824,-0.005 0.0892,-0.03111 0.007,-0.02828 0.0212,-0.03111 0.15213,-0.03111 0.10603,0 0.14887,0.0059 0.16249,0.02229 0.0102,0.01227 0.0303,0.02274 0.0447,0.02325 0.0886,0.0033 0.33087,0.03394 0.38023,0.04801 0.0323,0.0092 0.0659,0.01223 0.0747,0.0068 0.009,-0.0055 0.0338,-0.0055 0.0554,-1.1e-4 0.0359,0.009 0.0384,0.01491 0.0291,0.06984 -0.007,0.03827 -0.004,0.06394 0.007,0.07089 0.01,0.006 0.0784,0.01451 0.15271,0.01892 0.14642,0.0087 0.17486,0.02075 0.16959,0.0721 -0.003,0.02597 0.006,0.03456 0.0392,0.03836 0.0669,0.0077 0.0896,0.05576 0.0896,0.189807 0,0.0714 -0.007,0.125231 -0.0188,0.136624 -0.0104,0.01032 -0.0191,0.05197 -0.0194,0.09252 -7.3e-4,0.06493 -0.004,0.07334 -0.0327,0.07053 -0.0357,-0.0037 -0.0898,0.07098 -0.0719,0.09906 0.0111,0.01748 0.074,0.03041 0.22446,0.0462 l 0.0894,0.0094 v 0.07588 c 0,0.07187 0.002,0.07588 0.0415,0.07588 0.0781,0 0.0984,0.03718 0.0984,0.18041 V 5.84508 l 0.0816,0.0047 0.0816,0.0047 0.009,0.06639 c 0.0113,0.08468 0.0253,0.09738 0.0922,0.08355 0.0586,-0.01212 0.0567,-0.0075 0.0876,-0.216697 0.008,-0.05533 0.0181,-0.07049 0.0583,-0.08858 0.0669,-0.03012 0.10286,-0.06144 0.10286,-0.08947 0,-0.02946 0.046,-0.04237 0.1516,-0.04265 0.0718,-1.87e-4 0.0816,0.0037 0.0816,0.03144 0,0.01741 0.0112,0.04871 0.0249,0.06957 0.0189,0.02887 0.0224,0.05748 0.0144,0.119957 -0.006,0.04511 -0.0138,0.181792 -0.0179,0.303721 -0.006,0.183676 -0.003,0.227598 0.0167,0.256133 0.0299,0.04271 0.0303,0.103627 7.3e-4,0.142542 -0.0123,0.01623 -0.0198,0.03372 -0.0167,0.03887 0.003,0.0051 0.01,0.0635 0.0148,0.129664 0.005,0.06616 0.018,0.134381 0.0287,0.151604 0.0153,0.0245 0.0155,0.03781 7.4e-4,0.0612 -0.0161,0.02578 -0.0107,0.03849 0.039,0.09229 0.14389,0.155648 0.22013,0.276787 0.19737,0.313609 -0.0151,0.02443 0.0101,0.123975 0.0314,0.123975 0.027,0 0.0388,0.03585 0.0388,0.117889 0,0.07031 -0.0108,0.0828 -0.0433,0.05024 -0.0143,-0.01425 -0.0207,-0.0072 -0.0283,0.03074 -0.005,0.02707 -0.0177,0.0553 -0.0274,0.06273 -0.0346,0.02667 -0.35709,0.06808 -0.40076,0.05148 -0.0226,-0.0086 -0.0876,-0.01333 -0.14438,-0.01054 -0.1383,0.0068 -0.1523,-0.0076 -0.14037,-0.144562 0.0142,-0.162578 0.0182,-0.173527 0.0628,-0.173527 0.054,0 0.10392,-0.02891 0.0941,-0.05448 -0.0126,-0.0328 0.0276,-0.05543 0.0797,-0.04499 0.0698,0.01396 0.0871,-0.02832 0.0736,-0.180414 -0.008,-0.08779 -0.005,-0.13102 0.01,-0.157661 0.0247,-0.04453 0.0289,-0.122572 0.008,-0.150248 -0.008,-0.01113 -0.0195,-0.04612 -0.0248,-0.07774 -0.009,-0.05638 -0.0109,-0.0574 -0.0732,-0.05278 -0.0985,0.0073 -0.11632,-0.02046 -0.11207,-0.174567 0.002,-0.07002 -10e-4,-0.134843 -0.007,-0.144048 -0.006,-0.0092 -0.0559,-0.02163 -0.11162,-0.02758 -0.0974,-0.01043 -0.14298,-0.03947 -0.0619,-0.03947 0.0504,0 0.0768,-0.05777 0.0435,-0.09549 -0.0124,-0.01403 -0.0352,-0.02222 -0.0507,-0.01814 -0.0205,0.0054 -0.031,-0.0038 -0.0385,-0.0335 -0.006,-0.02248 -0.006,-0.04707 -0.002,-0.05464 0.005,-0.0076 0.002,-0.01778 -0.006,-0.0227 -0.008,-0.0051 -0.0187,0.04356 -0.0241,0.111655 -0.005,0.06633 -0.0162,0.145088 -0.0243,0.175019 -0.008,0.02994 -0.0167,0.06842 -0.0192,0.08552 -0.004,0.02509 -0.0166,0.03111 -0.0665,0.03111 -0.034,0 -0.0708,0.0058 -0.0818,0.01293 -0.028,0.01811 -0.0232,0.255116 0.006,0.301484 0.0188,0.02982 0.0184,0.05324 -0.003,0.171041 -0.0528,0.290696 -0.0489,0.319434 0.0459,0.337211 0.0967,0.01815 0.10661,0.03552 0.12023,0.211485 0.008,0.09923 0.007,0.171246 -0.003,0.188697 -0.0142,0.02652 -0.0398,0.02769 -0.42288,0.0195 -0.36662,-0.0078 -0.45943,-0.01146 -0.49719,-0.01932 -0.006,-0.0015 -0.0116,-0.02039 -0.0116,-0.04233 0,-0.02193 -0.008,-0.05395 -0.0167,-0.07113 -0.0229,-0.04285 -0.0321,-0.150138 -0.0138,-0.161451 0.008,-0.0051 0.0149,-0.02949 0.0149,-0.05421 0,-0.106341 0.0348,-0.209357 0.0876,-0.259248 0.0288,-0.02722 0.0524,-0.05587 0.0524,-0.06368 0,-0.02747 0.0567,-0.06499 0.11724,-0.07757 0.0546,-0.01135 0.0622,-0.01862 0.0701,-0.06701 0.0113,-0.06959 0.025,-0.09083 0.0693,-0.107689 0.0391,-0.01488 0.042,-0.0321 0.0687,-0.404236 0.0108,-0.150851 0.009,-0.165928 -0.0196,-0.198251 -0.0185,-0.02064 -0.0493,-0.035 -0.0752,-0.035 -0.0405,0 -0.0439,-0.0046 -0.0439,-0.05909 0,-0.06533 0.0227,-0.09867 0.0579,-0.08515 0.038,0.01458 0.0505,-0.02747 0.0507,-0.171122 2.6e-4,-0.149131 -0.006,-0.159827 -0.0853,-0.138167 -0.0429,0.01175 -0.0466,0.01836 -0.0466,0.08156 v 0.06876 l -0.0662,-0.005 c -0.0824,-0.0062 -0.0944,0.01785 -0.0909,0.180826 10e-4,0.06804 -0.005,0.119494 -0.0149,0.128159 -0.01,0.008 -0.0833,0.01818 -0.16371,0.02274 -0.21472,0.01212 -1.01623,0.0091 -1.13364,-0.0043 l -0.10107,-0.01153 -0.008,-0.07774 c -0.007,-0.07042 -0.0117,-0.0782 -0.0494,-0.08256 -0.0491,-0.0057 -0.07,-0.02751 -0.0774,-0.08071 -0.004,-0.03144 -0.0154,-0.03983 -0.0578,-0.04388 -0.0735,-0.007 -0.14519,0.02483 -0.13414,0.05964 0.01,0.03129 -0.0448,0.04093 -0.31031,0.05459 -0.20192,0.01039 -0.23357,0.02891 -0.22145,0.129561 0.005,0.03971 0.034,0.127593 0.0649,0.19529 0.0733,0.160305 0.0965,0.26453 0.11777,0.529626 0.0163,0.203444 0.0481,0.386448 0.12292,0.707836 0.0459,0.197417 0.0677,0.563252 0.0588,0.987363 -0.007,0.351095 -0.006,0.38146 0.0275,0.513119 0.0587,0.232659 0.28247,0.67003 0.3732,0.729481 0.0683,0.04472 0.33343,0.307152 0.39214,0.388086 0.0722,0.09944 0.22764,0.256182 0.29504,0.297401 0.028,0.01712 0.0772,0.04923 0.10936,0.07139 0.22311,0.153661 0.30962,0.201935 0.45361,0.253144 0.48022,0.170773 0.88206,0.212597 1.29973,0.135277 z m -0.41723,-1.115081 c -0.007,-0.0073 -0.0806,-0.02042 -0.16327,-0.02905 l -0.1503,-0.01572 V 9.601733 9.446409 h 0.07 c 0.0651,0 0.0703,-0.0029 0.075,-0.04357 0.003,-0.02828 0.0169,-0.04752 0.0389,-0.05482 0.0186,-0.0062 0.15432,-0.01106 0.30154,-0.01084 0.33923,3.68e-4 0.32336,-0.01102 0.32275,0.234081 -7.3e-4,0.236722 0.008,0.228722 -0.26725,0.237273 -0.11788,0.0037 -0.22016,7.34e-4 -0.22728,-0.0067 z m 0.58349,-0.242687 c 0.003,-0.03636 0.0118,-0.06609 0.0203,-0.06609 0.009,0 0.0177,0.02975 0.0204,0.06609 0.004,0.05244 -3.7e-4,0.06608 -0.0204,0.06608 -0.0199,0 -0.0241,-0.01363 -0.0203,-0.06608 z m -0.87374,-0.167155 c 0,-0.0086 0.0144,-0.01554 0.032,-0.01554 0.0176,0 0.0277,0.007 0.0224,0.01554 -0.005,0.0086 -0.0197,0.01554 -0.032,0.01554 -0.0123,0 -0.0224,-0.007 -0.0224,-0.01554 z m -0.34208,-0.04596 c -0.0128,-0.0087 -0.0386,-0.01587 -0.0574,-0.01598 -0.043,-3.01e-4 -0.0507,-0.01297 -0.0404,-0.06686 0.006,-0.03364 0.0147,-0.04108 0.0374,-0.03386 0.0161,0.0051 0.0292,0.0018 0.0292,-0.0073 0,-0.0091 -0.0122,-0.01675 -0.0272,-0.01693 -0.0149,-1.87e-4 -0.0443,-0.01352 -0.0653,-0.0296 -0.0268,-0.02061 -0.0533,-0.02681 -0.0893,-0.02097 -0.0583,0.0095 -0.10096,-0.01682 -0.0869,-0.05353 0.0116,-0.0303 -0.0337,-0.06593 -0.0713,-0.05608 -0.0565,0.01477 -0.0695,-0.0324 -0.0695,-0.252861 0,-0.115281 0.006,-0.215535 0.0142,-0.222786 0.0234,-0.0216 0.56266,-0.03401 0.66731,-0.01532 0.0513,0.0091 0.12322,0.01598 0.1598,0.01513 0.0756,-0.0018 0.0961,0.02388 0.0682,0.08507 -0.0143,0.03133 -0.0124,0.04012 0.0114,0.05285 0.0315,0.01686 0.90759,0.02534 0.93398,0.009 0.009,-0.0055 0.0162,-0.0418 0.0162,-0.08068 v -0.07069 l 0.19047,0.0089 c 0.10477,0.0049 0.21672,0.0089 0.24879,0.0088 0.0521,-1.25e-4 0.0583,0.0041 0.0583,0.03937 0,0.04455 -0.018,0.05077 -0.0466,0.0162 -0.0266,-0.03206 -0.0676,-0.02924 -0.10031,0.0069 -0.0151,0.01664 -0.0529,0.03258 -0.084,0.03541 -0.0333,0.0029 10e-4,0.01006 0.0833,0.01708 0.077,0.0066 0.15044,0.01763 0.16327,0.02457 0.0128,0.0069 0.0271,0.03987 0.0317,0.07317 0.0109,0.07948 0.0274,0.105874 0.0528,0.08476 0.0289,-0.02395 0.0399,-0.0038 0.0399,0.07265 0,0.05785 -0.004,0.06761 -0.0287,0.06349 -0.0419,-0.0071 -0.0801,0.0314 -0.0801,0.08066 0,0.06139 -0.0245,0.07352 -0.15258,0.07542 -0.0625,0.0011 -0.12027,0.0057 -0.12828,0.01069 -0.008,0.005 -0.0146,0.03868 -0.0146,0.07495 0,0.03625 -0.008,0.07434 -0.0187,0.0846 -0.0105,0.01054 -0.061,0.01866 -0.11607,0.01866 -0.11201,0 -0.13148,-0.01847 -0.12544,-0.118951 l 0.004,-0.05987 -0.52562,-0.01289 c -0.60416,-0.01484 -0.60554,-0.01458 -0.59073,0.09583 0.008,0.05863 0.006,0.06112 -0.0442,0.07183 -0.0961,0.02039 -0.2231,0.02512 -0.24667,0.0092 z m 0.40249,-0.652311 c 0.0173,-0.01098 0.0155,-0.0169 -0.01,-0.0303 -0.0333,-0.01785 -0.0508,-0.0097 -0.0508,0.02369 0,0.02362 0.0286,0.02674 0.0604,0.0066 z m -0.9778,0.09963 c 0,-0.04368 0.018,-0.05003 0.0461,-0.01623 0.0216,0.02604 0.009,0.0551 -0.0237,0.0551 -0.0135,0 -0.0224,-0.01539 -0.0224,-0.03887 z M 10.223857,6.437661 c -0.005,-0.0086 -0.002,-0.01554 0.007,-0.01554 0.009,0 0.0165,0.007 0.0165,0.01554 0,0.0086 -0.003,0.01554 -0.007,0.01554 -0.004,0 -0.0112,-0.007 -0.0165,-0.01554 z m -0.19825,-0.01028 c 0.0107,-0.0043 0.0282,-0.0043 0.0389,0 0.0107,0.0043 0.002,0.0079 -0.0194,0.0079 -0.0214,0 -0.0301,-0.0037 -0.0194,-0.0079 z m -0.0583,-0.06026 c -0.0128,-0.0037 -0.0793,-0.0085 -0.14772,-0.0108 l -0.1244,-0.0042 -0.005,-0.07735 c -0.006,-0.101158 -0.0231,-0.119009 -0.10749,-0.114642 -0.0783,0.004 -0.10231,-0.01822 -0.0889,-0.08239 0.012,-0.05726 -0.0307,-0.155732 -0.0623,-0.143619 -0.0133,0.0051 -0.0242,0.0015 -0.0242,-0.0079 0,-0.0095 0.009,-0.01723 0.0209,-0.01723 0.0115,0 0.0336,-0.01399 0.0491,-0.03111 0.0207,-0.02296 0.0479,-0.03111 0.10348,-0.03111 0.0807,0 0.0819,-0.0015 0.0764,-0.09439 -0.004,-0.0654 0.018,-0.08776 0.0923,-0.09481 0.0461,-0.0044 0.0544,-0.01106 0.0548,-0.04403 3.7e-4,-0.03559 0.006,-0.03887 0.07,-0.03887 0.0382,0 0.0773,-0.0051 0.0867,-0.01124 0.0202,-0.01315 0.3156197,-0.01583 0.3947997,-0.0037 0.0299,0.0046 0.0894,0.0099 0.13217,0.01161 0.0688,0.0029 0.0774,0.0069 0.0744,0.03585 -0.004,0.04127 0.043,0.06628 0.13546,0.07191 l 0.07,0.0043 0.005,0.06967 c 0.006,0.08451 0.0242,0.10915 0.0808,0.10915 0.0541,0 0.062,0.02061 0.062,0.161425 0,0.119766 -0.0144,0.149554 -0.0722,0.149554 -0.045,0 -0.0593,0.02431 -0.0597,0.10107 l -2.9e-4,0.06219 -0.1244,0.01018 c -0.17086,0.01396 -0.6633197,0.02843 -0.6919297,0.02035 z m -0.0155,-0.737988 c 0,-0.0086 -0.0105,-0.01554 -0.0233,-0.01554 -0.0128,0 -0.0233,0.007 -0.0233,0.01554 0,0.0086 0.0105,0.01554 0.0233,0.01554 0.0128,0 0.0233,-0.007 0.0233,-0.01554 z m 0.5364397,0 c -0.005,-0.0086 -0.0162,-0.01554 -0.0242,-0.01554 -0.008,0 -0.0146,0.007 -0.0146,0.01554 0,0.0086 0.0109,0.01554 0.0242,0.01554 0.0133,0 0.0199,-0.007 0.0146,-0.01554 z M 5.9543973,5.469754 c -0.009,-0.02589 -0.006,-0.07386 0.004,-0.07386 0.007,0 0.013,0.01748 0.013,0.03887 0,0.03115 -0.0107,0.05338 -0.0169,0.03497 z M 10.633047,5.32308 c 0.0112,-0.0045 0.0246,-0.0039 0.0298,0.0011 0.005,0.0052 -0.004,0.0089 -0.0204,0.0082 -0.0181,-7.35e-4 -0.0218,-0.0044 -0.009,-0.0094 z M 7.1362673,5.208583 c -0.0164,-0.0101 -0.0164,-0.01697 -3.7e-4,-0.03625 0.0159,-0.01921 0.0255,-0.0202 0.0495,-0.0052 0.0164,0.01021 0.0298,0.0231 0.0298,0.02858 0,0.01675 -0.0575,0.02615 -0.0789,0.01289 z m -2.12022,2.385827 c 0.0152,-0.101426 -0.0153,-0.575523 -0.0786,-1.218928 -0.0236,-0.240754 -0.0304,-0.2898 -0.0568,-0.412706 l -0.0168,-0.0784 -0.11436,-0.01818 c -0.0753,-0.01197 -0.1361097,-0.03258 -0.1780297,-0.06033 -0.0809,-0.05353 -0.11183,-0.04295 -0.2081,0.07111 -0.12903,0.152877 -0.14078,0.203451 -0.1411,0.607364 -2.8e-4,0.344029 3.6e-4,0.352135 0.0446,0.486828 0.0677,0.206548 0.28897,0.554642 0.39826,0.626479 0.0299,0.01969 0.0894,0.04374 0.1321697,0.05348 0.0428,0.0097 0.0952,0.02292 0.11662,0.02927 0.061,0.01815 0.0902,-0.0065 0.10213,-0.08599 z M 4.5900376,7.02397 c -0.0524,-0.06319 -0.0901,-0.320073 -0.0505,-0.344543 0.034,-0.02101 0.0346,-0.09997 0.001,-0.145274 -0.0319,-0.04309 -0.0325,-0.05082 -0.0142,-0.175732 0.0105,-0.07186 0.0241,-0.136353 0.0302,-0.143317 0.0263,-0.03026 0.0579,0.03976 0.0679,0.150436 0.0112,0.123078 0.003,0.184465 -0.0317,0.234976 -0.0285,0.04162 -0.0265,0.06862 0.0105,0.140967 0.0557,0.109118 0.0444,0.351896 -0.0133,0.282487 z m 4.3821797,0.324246 c 0,-0.01642 -0.0298,-0.02329 -0.0387,-0.009 -0.005,0.0087 10e-4,0.01579 0.0145,0.01579 0.0133,0 0.0242,-0.0029 0.0242,-0.0069 z m -0.81348,-0.944551 c -0.005,-0.01241 -0.009,-0.0087 -0.009,0.0094 -7.3e-4,0.01638 0.003,0.02556 0.008,0.02042 0.005,-0.0052 0.006,-0.01859 10e-4,-0.02979 z m 0.014,-0.197189 c -0.005,-0.0089 -0.0205,-0.01223 -0.0332,-0.0073 -0.0182,0.007 -0.0192,0.01366 -0.005,0.03107 0.0206,0.02479 0.0549,0.0033 0.0381,-0.02377 z m -2.23255,-0.297465 c 0,-0.0086 -0.007,-0.01554 -0.0155,-0.01554 -0.009,0 -0.0155,0.007 -0.0155,0.01554 0,0.0086 0.007,0.01554 0.0155,0.01554 0.009,0 0.0155,-0.007 0.0155,-0.01554 z m 1.85582,-0.190306 c -0.0103,-0.01671 -0.0521,-0.01477 -0.0521,0.0026 0,0.0079 0.004,0.02556 0.01,0.03933 0.009,0.02252 0.0116,0.0223 0.0297,-0.0026 0.0111,-0.01513 0.0168,-0.03284 0.0128,-0.03933 z m -1.33492,-0.213971 c 0.005,-0.009 -0.009,-0.01546 -0.0341,-0.01532 -0.0339,1.84e-4 -0.0385,0.0037 -0.0203,0.01532 0.0299,0.01932 0.0425,0.01932 0.0544,0 z M 10.865037,5.293202 c -0.005,-0.0052 -0.0186,-0.0057 -0.0298,-0.0011 -0.0124,0.005 -0.009,0.0087 0.009,0.0094 0.0164,7.34e-4 0.0256,-0.0029 0.0204,-0.0082 z M 7.9615673,5.116008 c 0,-0.0086 -0.007,-0.01554 -0.0155,-0.01554 -0.009,0 -0.0155,0.007 -0.0155,0.01554 0,0.0086 0.007,0.01554 0.0155,0.01554 0.009,0 0.0155,-0.007 0.0155,-0.01554 z m -1.50835,-0.537739 c 0,-0.02747 -0.0335,-0.02266 -0.0431,0.0062 -0.003,0.01014 0.005,0.01848 0.0185,0.01848 0.0136,0 0.0246,-0.01109 0.0246,-0.02461 z m 1.02624,0.0091 c 0,-0.0086 -0.007,-0.01554 -0.0155,-0.01554 -0.009,0 -0.0155,0.007 -0.0155,0.01554 0,0.0086 0.007,0.01554 0.0155,0.01554 0.009,0 0.0155,-0.007 0.0155,-0.01554 z m -0.88492,11.392607 c -0.0894,-0.04572 -0.11199,-0.107994 -0.10818,-0.297936 0.003,-0.165462 0.0305,-0.22567 0.1233,-0.273004 0.0751,-0.03833 0.34179,-0.04375 0.42576,-0.0087 0.0501,0.02094 0.053,0.0267 0.0634,0.123685 0.01,0.09221 0.003,0.29686 -0.0134,0.37526 -0.003,0.01712 -0.007,0.04224 -0.008,0.05584 -0.003,0.03781 -0.10527,0.06082 -0.26812,0.06033 -0.12024,-3.56e-4 -0.15798,-0.0066 -0.2145,-0.03552 z M 4.3230676,15.519715 c -0.0796,-0.0085 -0.0861,-0.01234 -0.0953,-0.05578 -0.005,-0.02567 -0.0107,-0.08313 -0.0117,-0.127732 -0.002,-0.100743 0.006,-0.106139 0.19462,-0.120787 0.10211,-0.0079 0.15219,-0.0056 0.17816,0.0083 0.0199,0.01065 0.0504,0.02005 0.0679,0.02094 0.0282,0.0015 0.0323,0.01341 0.0363,0.105934 l 0.005,0.10432 -0.0626,0.03951 c -0.0657,0.04149 -0.11956,0.04586 -0.31191,0.02531 z m -7e-5,-0.662353 c -0.0128,-0.0033 -0.0623,-0.01 -0.11003,-0.01521 l -0.0867,-0.0095 -0.0186,-0.0964 c -0.0226,-0.117363 -0.0129,-0.453701 0.014,-0.486115 0.014,-0.01686 0.0589,-0.02229 0.18378,-0.02215 0.2514,2.57e-4 0.26826,0.0052 0.31736,0.09252 0.0287,0.05104 0.0448,0.107784 0.0517,0.182541 0.009,0.095 0.005,0.11989 -0.0293,0.200392 -0.0217,0.05055 -0.0434,0.104166 -0.0482,0.11913 -0.007,0.02027 -0.0257,0.02725 -0.0753,0.02736 -0.0366,9.5e-5 -0.0911,0.0029 -0.121,0.0066 -0.0299,0.0037 -0.0649,0.0039 -0.0777,7.35e-4 z"
     id="path909" />
  <rect
     style="fill:#ffff00;fill-opacity:1;stroke-width:2"
     id="rect1715"
     width="24.019716"
     height="6.2147646"
     x="27.292746"
     y="-15.29493" />
</svg>
