<?xml version="1.0" encoding="UTF-8" standalone="no"?>
<!-- Generator: Adobe Illustrator 14.0.0, SVG Export Plug-In . SVG Version: 6.00 Build 43363)  -->

<svg
   version="1.1"
   id="Layer_1"
   x="0px"
   y="0px"
   width="276.06796"
   height="276.0657"
   viewBox="0 0 276.06796 276.0657"
   enable-background="new 0 0 400 400"
   xml:space="preserve"
   sodipodi:docname="Hsv_color_circle.svg"
   inkscape:version="1.3.2 (091e20ef0f, 2023-11-25)"
   xmlns:inkscape="http://www.inkscape.org/namespaces/inkscape"
   xmlns:sodipodi="http://sodipodi.sourceforge.net/DTD/sodipodi-0.dtd"
   xmlns="http://www.w3.org/2000/svg"
   xmlns:svg="http://www.w3.org/2000/svg"><defs
   id="defs72" /><sodipodi:namedview
   id="namedview72"
   pagecolor="#ffffff"
   bordercolor="#000000"
   borderopacity="0.25"
   inkscape:showpageshadow="2"
   inkscape:pageopacity="0.0"
   inkscape:pagecheckerboard="0"
   inkscape:deskcolor="#d1d1d1"
   showgrid="false"
   inkscape:zoom="1.18"
   inkscape:cx="137.28814"
   inkscape:cy="140.25424"
   inkscape:window-width="1920"
   inkscape:window-height="1007"
   inkscape:window-x="0"
   inkscape:window-y="0"
   inkscape:window-maximized="1"
   inkscape:current-layer="Layer_1" />

<g
   id="g12"
   transform="translate(-64.110272,-105.96664)">
	<path
   fill="#ff7f00"
   stroke="#3f3f3f"
   stroke-linejoin="round"
   d="m 260.489,185.654 c 9.926,9.905 17.454,22.477 21.345,36.993 l 53.127,-14.234 c -6.484,-24.196 -19.033,-45.147 -35.574,-61.656 l -0.015,0.017 -38.881,38.883 z"
   id="path1" />
	<path
   fill="#007fff"
   stroke="#3f3f3f"
   d="m 104.919,341.226 38.882,-38.88 v 0.004 c -9.925,-9.906 -17.455,-22.477 -21.345,-36.996 L 69.33,279.587 c 6.482,24.198 19.031,45.147 35.571,61.656 z"
   id="path2" />
	<path
   fill="#ffff00"
   stroke="#3f3f3f"
   stroke-linejoin="round"
   d="m 223.5,164.299 c 13.548,3.615 26.354,10.737 36.982,21.364 l 38.89,-38.891 C 281.66,129.06 260.317,117.19 237.737,111.163 l -0.002,0.021 -14.233,53.114 H 223.5 Z"
   id="path3" />
	<path
   fill="#0000ff"
   stroke="#3f3f3f"
   d="m 166.559,376.812 14.232,-53.111 0.003,0.002 c -13.549,-3.618 -26.355,-10.737 -36.985,-21.366 l -38.89,38.889 c 17.712,17.714 39.054,29.584 61.632,35.608 z"
   id="path4" />
	<path
   fill="#7fff00"
   stroke="#3f3f3f"
   stroke-linejoin="round"
   d="m 180.789,164.298 c 13.539,-3.642 28.191,-3.877 42.708,0.013 l 14.236,-53.126 c -24.196,-6.482 -48.616,-6.091 -71.183,-0.021 l 0.007,0.021 14.233,53.113 z"
   id="path5" />
	<path
   fill="#7f00ff"
   stroke="#3f3f3f"
   d="m 237.735,376.812 -14.233,-53.113 0.004,0.002 c -13.541,3.642 -28.193,3.876 -42.714,-0.013 l -14.235,53.126 c 24.197,6.482 48.615,6.091 71.181,0.021 z"
   id="path6" />
	<path
   fill="#00ff00"
   stroke="#3f3f3f"
   stroke-linejoin="round"
   d="m 143.799,185.654 c 9.905,-9.924 22.476,-17.454 36.994,-21.345 l -14.236,-53.126 c -24.195,6.484 -45.146,19.032 -61.655,35.573 l 0.017,0.014 38.883,38.881 z"
   id="path7" />
	<path
   fill="#ff00ff"
   stroke="#3f3f3f"
   d="m 299.372,341.224 -38.883,-38.88 0.004,-0.002 c -9.904,9.926 -22.477,17.456 -36.996,21.345 l 14.238,53.126 c 24.193,-6.483 45.145,-19.03 61.651,-35.571 z"
   id="path8" />
	<path
   fill="#00ff7f"
   stroke="#3f3f3f"
   stroke-linejoin="round"
   d="m 122.441,222.644 c 3.617,-13.547 10.739,-26.354 21.366,-36.981 l -38.891,-38.891 c -17.712,17.712 -29.582,39.057 -35.608,61.635 l 0.02,0.005 53.115,14.23 z"
   id="path9" />
	<path
   fill="#ff007f"
   stroke="#3f3f3f"
   d="m 334.958,279.585 -53.113,-14.233 h 0.004 c -3.617,13.546 -10.739,26.353 -21.368,36.983 l 38.892,38.891 c 17.714,-17.714 29.581,-39.056 35.61,-61.632 z"
   id="path10" />
	<path
   fill="#00ffff"
   stroke="#3f3f3f"
   stroke-linejoin="round"
   d="m 122.442,265.356 c -3.642,-13.542 -3.877,-28.193 0.011,-42.711 L 69.329,208.411 c -6.482,24.195 -6.092,48.613 -0.021,71.181 l 0.02,-0.007 53.113,-14.233 z"
   id="path11" />
	<path
   fill="#ff0000"
   stroke="#3f3f3f"
   d="m 334.956,208.411 -53.113,14.231 0.002,-0.005 c 3.642,13.542 3.88,28.195 -0.013,42.714 l 53.126,14.233 c 6.484,-24.195 6.094,-48.614 0.021,-71.179 z"
   id="path12" />
</g>


</svg>
