<?xml version="1.0" encoding="UTF-8" standalone="no"?>
<svg
   width="48"
   height="48"
   version="1.1"
   id="svg970"
   sodipodi:docname="discover2.svg"
   inkscape:version="1.2.1 (9c6d41e, 2022-07-14)"
   xmlns:inkscape="http://www.inkscape.org/namespaces/inkscape"
   xmlns:sodipodi="http://sodipodi.sourceforge.net/DTD/sodipodi-0.dtd"
   xmlns:xlink="http://www.w3.org/1999/xlink"
   xmlns="http://www.w3.org/2000/svg"
   xmlns:svg="http://www.w3.org/2000/svg">
  <sodipodi:namedview
     id="namedview972"
     pagecolor="#ffffff"
     bordercolor="#999999"
     borderopacity="1"
     inkscape:pageshadow="0"
     inkscape:pageopacity="0"
     inkscape:pagecheckerboard="0"
     showgrid="false"
     inkscape:zoom="10.979167"
     inkscape:cx="7.4231499"
     inkscape:cy="15.210626"
     inkscape:window-width="1440"
     inkscape:window-height="540"
     inkscape:window-x="2275"
     inkscape:window-y="163"
     inkscape:window-maximized="0"
     inkscape:current-layer="svg970"
     inkscape:showpageshadow="2"
     inkscape:deskcolor="#d1d1d1" />
  <defs
     id="defs944">
    <linearGradient
       id="linearGradient6648"
       y1="543.8"
       y2="513.8"
       x2="0"
       gradientUnits="userSpaceOnUse"
       gradientTransform="matrix(1.125 0 0 1-51.07 0)">
      <stop
         stop-color="#197cf1"
         id="stop6644"
         offset="0"
         style="stop-color:#00bf00;stop-opacity:1;" />
      <stop
         offset="1"
         stop-color="#20bcfa"
         id="stop6646"
         style="stop-color:#00ec00;stop-opacity:1;" />
    </linearGradient>
    <linearGradient
       id="a"
       y1="543.8"
       y2="513.8"
       x2="0"
       gradientUnits="userSpaceOnUse"
       gradientTransform="matrix(1.125 0 0 1-51.07 0)">
      <stop
         stop-color="#197cf1"
         id="stop915" />
      <stop
         offset="1"
         stop-color="#20bcfa"
         id="stop917" />
    </linearGradient>
    <linearGradient
       xlink:href="#a"
       id="b"
       y1="44"
       y2="11"
       x2="0"
       gradientUnits="userSpaceOnUse"
       gradientTransform="matrix(1.074119,0,0,1.074119,-1.7788598,-4.5200875)" />
    <linearGradient
       id="c"
       y1="10"
       y2="14"
       x2="0"
       gradientUnits="userSpaceOnUse"
       gradientTransform="matrix(1.074119,0,0,1.074119,-1.7788598,-4.5200875)">
      <stop
         stop-color="#1d1e1e"
         id="stop921" />
      <stop
         offset="1"
         stop-color="#44484c"
         id="stop923" />
    </linearGradient>
    <linearGradient
       xlink:href="#a"
       id="d"
       y1="14"
       y2="10"
       gradientUnits="userSpaceOnUse"
       x2="0"
       gradientTransform="matrix(1.074119,0,0,1.074119,-1.7788598,-4.5200875)" />
    <linearGradient
       xlink:href="#linearGradient6648"
       id="e"
       y1="516.8"
       y2="503.8"
       x2="0"
       gradientUnits="userSpaceOnUse"
       gradientTransform="matrix(1.074119,0,0,1.074119,-414.8528,-541.36476)" />
    <linearGradient
       id="f"
       y1="18"
       y2="15"
       x2="0"
       gradientUnits="userSpaceOnUse">
      <stop
         stop-color="#c6cdd1"
         id="stop928" />
      <stop
         offset="1"
         stop-color="#e0e5e7"
         id="stop930" />
    </linearGradient>
    <linearGradient
       xlink:href="#f"
       id="g"
       y1="517.8"
       y2="514.8"
       x2="0"
       gradientUnits="userSpaceOnUse"
       gradientTransform="matrix(1.074119,0,0,1.074119,-414.8528,-541.36476)" />
    <linearGradient
       id="h"
       y1="19"
       y2="3"
       x2="0"
       gradientUnits="userSpaceOnUse"
       gradientTransform="matrix(1.074119,0,0,1.074119,12.184687,14.814055)">
      <stop
         stop-color="#7cbaf8"
         id="stop934" />
      <stop
         offset="1"
         stop-color="#f4fcff"
         id="stop936" />
    </linearGradient>
    <linearGradient
       id="i"
       y1="23"
       x1="16"
       y2="39"
       x2="32"
       gradientUnits="userSpaceOnUse">
      <stop
         stop-color="#292c2f"
         id="stop939" />
      <stop
         offset="1"
         stop-opacity="0"
         id="stop941" />
    </linearGradient>
    <linearGradient
       xlink:href="#linearGradient2363"
       id="b-3"
       y1="44"
       y2="11"
       x2="0"
       gradientUnits="userSpaceOnUse"
       gradientTransform="matrix(1,0,0,1.0792724,-4.16e-6,-4.6928787)" />
    <linearGradient
       id="linearGradient2363"
       y1="543.79999"
       y2="513.79999"
       x2="0"
       gradientUnits="userSpaceOnUse"
       gradientTransform="matrix(1.125,0,0,1,-51.07,0)">
      <stop
         stop-color="#197cf1"
         id="stop2359"
         offset="0"
         style="stop-color:#007c00;stop-opacity:1;" />
      <stop
         offset="1"
         stop-color="#20bcfa"
         id="stop2361"
         style="stop-color:#00bc00;stop-opacity:1;" />
    </linearGradient>
    <linearGradient
       inkscape:collect="always"
       xlink:href="#linearGradient2345"
       id="linearGradient1940"
       gradientUnits="userSpaceOnUse"
       gradientTransform="matrix(1.125,0,0,1.0792724,-435.64001,-544.11323)"
       y1="543.79999"
       x2="0"
       y2="513.79999" />
    <linearGradient
       id="linearGradient2345"
       y1="543.79999"
       y2="513.79999"
       x2="0"
       gradientUnits="userSpaceOnUse"
       gradientTransform="matrix(1.125,0,0,1,-51.07,0)">
      <stop
         stop-color="#197cf1"
         id="stop2341"
         offset="0"
         style="stop-color:#006400;stop-opacity:1;" />
      <stop
         offset="1"
         stop-color="#20bcfa"
         id="stop2343"
         style="stop-color:#00bc00;stop-opacity:1;" />
    </linearGradient>
    <linearGradient
       xlink:href="#a-7"
       id="d-6"
       y1="14"
       y2="10"
       gradientUnits="userSpaceOnUse"
       x2="0"
       gradientTransform="matrix(1,0,0,1.0792724,-4.16e-6,-4.6928787)" />
    <linearGradient
       id="a-7"
       y1="543.79999"
       y2="513.79999"
       x2="0"
       gradientUnits="userSpaceOnUse"
       gradientTransform="matrix(1.125,0,0,1,-51.07,0)">
      <stop
         stop-color="#197cf1"
         id="stop1038"
         offset="0"
         style="stop-color:#007c00;stop-opacity:1;" />
      <stop
         offset="1"
         stop-color="#20bcfa"
         id="stop1040"
         style="stop-color:#00bc00;stop-opacity:1;" />
    </linearGradient>
    <linearGradient
       id="c-5"
       y1="10"
       y2="14"
       x2="0"
       gradientUnits="userSpaceOnUse"
       gradientTransform="matrix(1,0,0,1.0792724,-4.16e-6,-4.6928787)">
      <stop
         stop-color="#1d1e1e"
         id="stop1044"
         offset="0"
         style="stop-color:#001e00;stop-opacity:1;" />
      <stop
         offset="1"
         stop-color="#44484c"
         id="stop1046"
         style="stop-color:#004800;stop-opacity:1;" />
    </linearGradient>
    <linearGradient
       xlink:href="#linearGradient2357"
       id="e-3"
       y1="516.79999"
       y2="503.79999"
       x2="0"
       gradientUnits="userSpaceOnUse"
       gradientTransform="matrix(1,0,0,1.0792724,-421.91181,-544.11323)" />
    <linearGradient
       id="linearGradient2357"
       y1="543.79999"
       y2="513.79999"
       x2="0"
       gradientUnits="userSpaceOnUse"
       gradientTransform="matrix(1.125,0,0,1,-51.07,0)">
      <stop
         stop-color="#197cf1"
         id="stop2353"
         offset="0"
         style="stop-color:#00bb00;stop-opacity:1;" />
      <stop
         offset="1"
         stop-color="#20bcfa"
         id="stop2355"
         style="stop-color:#00ce00;stop-opacity:1;" />
    </linearGradient>
    <linearGradient
       xlink:href="#f-6"
       id="g-5"
       y1="517.79999"
       y2="514.79999"
       x2="0"
       gradientUnits="userSpaceOnUse"
       gradientTransform="matrix(1,0,0,1.0792724,-385.12812,-544.11323)" />
    <linearGradient
       id="f-6"
       y1="18"
       y2="15"
       x2="0"
       gradientUnits="userSpaceOnUse">
      <stop
         stop-color="#c6cdd1"
         id="stop1051"
         offset="0"
         style="stop-color:#00ef00;stop-opacity:1;" />
      <stop
         offset="1"
         stop-color="#e0e5e7"
         id="stop1053"
         style="stop-color:#00ff00;stop-opacity:1;" />
    </linearGradient>
    <linearGradient
       inkscape:collect="always"
       xlink:href="#linearGradient2351"
       id="linearGradient1942"
       gradientUnits="userSpaceOnUse"
       y1="18"
       x2="0"
       y2="15"
       gradientTransform="matrix(1,0,0,1.0792724,0.54743324,-4.6928787)" />
    <linearGradient
       id="linearGradient2351"
       y1="18"
       y2="15"
       x2="0"
       gradientUnits="userSpaceOnUse">
      <stop
         stop-color="#c6cdd1"
         id="stop2347"
         offset="0"
         style="stop-color:#00ee00;stop-opacity:1;" />
      <stop
         offset="1"
         stop-color="#e0e5e7"
         id="stop2349"
         style="stop-color:#00ff00;stop-opacity:1;" />
    </linearGradient>
    <linearGradient
       id="h-2"
       y1="19"
       y2="3"
       x2="0"
       gradientUnits="userSpaceOnUse"
       gradientTransform="matrix(1,0,0,1.0792724,12.999996,14.734024)">
      <stop
         stop-color="#7cbaf8"
         id="stop1057"
         offset="0"
         style="stop-color:#00aa00;stop-opacity:1;" />
      <stop
         offset="1"
         stop-color="#f4fcff"
         id="stop1059"
         style="stop-color:#00fc00;stop-opacity:1;" />
    </linearGradient>
    <linearGradient
       inkscape:collect="always"
       xlink:href="#i"
       id="linearGradient6186"
       gradientUnits="userSpaceOnUse"
       x1="16"
       y1="23"
       x2="32"
       y2="39"
       gradientTransform="matrix(1,0,0,1.0792724,-4.16e-6,-4.6928787)" />
  </defs>
  <path
     fill="url(#b)"
     fill-rule="evenodd"
     d="m 8.9999958,7.1791177 v 2.1585448 l 1,-1.0792724 z m 30.0000002,0 -1,1.0792724 1,1.0792724 z"
     id="path1069"
     style="fill:url(#b-3);stroke-width:1.03888" />
  <rect
     width="36"
     x="6.0000043"
     y="10.416921"
     fill="url(#a)"
     rx="0"
     height="32.378174"
     id="rect1071"
     style="fill:url(#linearGradient1940);stroke-width:1.03888" />
  <path
     opacity="0.2"
     fill="url(#i)"
     d="m 20.706996,20.446613 -1.414,1.526091 8,8.63418 -0.293,0.316226 11,11.871997 h 4 v -6.475635 l -10,-10.792724 -3.293,3.554045 z m -2.146,6.633208 -2.121,2.289137 5.5,5.935998 -1.354,1.461335 5.586,6.028816 h 6.951 z"
     id="path1073"
     style="fill:url(#linearGradient6186);stroke-width:1.03888" />
  <rect
     width="36"
     x="6.0000043"
     y="41.715824"
     fill="#1c5593"
     height="1.0792724"
     id="rect1075"
     style="fill:#005500;fill-opacity:1;stroke-width:1.03888" />
  <path
     fill-rule="evenodd"
     fill="url(#d)"
     d="m 9.9999958,6.0998453 -1,1.0792724 1,1.0792724 -4,2.1585449 H 41.999996 l -4,-2.1585449 1,-1.0792724 -1,-1.0792724 h -14 z"
     id="path1077"
     style="fill:url(#d-6);stroke-width:1.03888" />
  <path
     fill-rule="evenodd"
     d="m 9.9999958,6.0998453 -1,1.0792724 1,1.0792724 -4,2.1585449 H 41.999996 l -4,-2.1585449 1,-1.0792724 -1,-1.0792724 h -14 z"
     opacity="0.6"
     fill="url(#c)"
     id="path1079"
     style="fill:url(#c-5);stroke-width:1.03888" />
  <path
     opacity="0.2"
     d="m 9.9999958,6.0998453 -1,1.0792724 H 38.999996 l -1,-1.0792724 h -14 z"
     id="path1081"
     style="stroke-width:1.03888" />
  <path
     fill="url(#h)"
     d="m 19.999996,20.130386 c -0.554,0 -1,0.481356 -1,1.079273 0,0.597917 0.446,1.079272 1,1.079272 0.554,0 1,-0.481355 1,-1.079272 0,-0.597917 -0.446,-1.079273 -1,-1.079273 m 7,0 -2,2.158545 3,3.237817 -3,3.237818 2,2.158544 5,-5.396362 z m -9.5,6.475635 c -0.831,0 -1.5,0.722033 -1.5,1.618908 0,0.896876 0.669,1.618909 1.5,1.618909 0.831,0 1.5,-0.722033 1.5,-1.618909 0,-0.896875 -0.669,-1.618908 -1.5,-1.618908 m 4.5,6.475634 c -1.108,0 -2,0.962711 -2,2.158545 0,1.195834 0.892,2.158545 2,2.158545 1.108,0 2,-0.962711 2,-2.158545 0,-1.195834 -0.892,-2.158545 -2,-2.158545"
     id="path1089"
     style="fill:url(#h-2);stroke-width:1.03888" />
  <path
     fill="url(#e)"
     d="M 15.407048,13.739936 V 8.3693405 c 0,-4.7604954 5.233735,-3.0112316 8.592952,-1.5612427 3.309633,-1.4510861 8.592952,-3.1992527 8.592952,1.5612427 V 13.739936 H 31.518833 V 8.3693405 c 0,-4.1654335 -5.678888,-0.4486627 -7.565229,-0.4912473 -1.886341,-0.042585 -7.472437,-3.6741862 -7.472437,0.4912473 v 5.3705955 z"
     id="path960"
     style="fill:url(#e);stroke-width:1.07412"
     sodipodi:nodetypes="cscsccszscc" />
  <path
     fill="url(#f)"
     d="m 32.047464,11.496207 a 1.5,1.6189086 0 0 0 -1.5,1.618909 1.5,1.6189086 0 0 0 1.5,1.618908 1.5,1.6189086 0 0 0 1.5,-1.618908 1.5,1.6189086 0 0 0 -1.5,-1.618909 m 0,1.079273 a 0.5,0.5396362 0 0 1 0.5,0.539636 0.5,0.5396362 0 0 1 -0.5,0.539636 0.5,0.5396362 0 0 1 -0.5,-0.539636 0.5,0.5396362 0 0 1 0.5,-0.539636"
     id="path1087"
     style="fill:url(#linearGradient1942);stroke-width:1.03888" />
  <path
     fill="url(#g)"
     d="m 15.943561,11.494049 a 1.5,1.6189086 0 0 1 1.5,1.618908 1.5,1.6189086 0 0 1 -1.5,1.618909 1.5,1.6189086 0 0 1 -1.5,-1.618909 1.5,1.6189086 0 0 1 1.5,-1.618908 m 0,1.079272 a 0.5,0.5396362 0 0 0 -0.5,0.539636 0.5,0.5396362 0 0 0 0.5,0.539637 0.5,0.5396362 0 0 0 0.5,-0.539637 0.5,0.5396362 0 0 0 -0.5,-0.539636"
     id="path1085"
     style="fill:url(#g-5);stroke-width:1.03888" />
</svg>
