<?xml version="1.0" encoding="UTF-8" standalone="no"?>
<!-- Created with Inkscape (http://www.inkscape.org/) -->

<svg
   width="126.8831mm"
   height="113.42001mm"
   viewBox="0 0 126.8831 113.42002"
   version="1.1"
   id="svg5"
   xml:space="preserve"
   xmlns="http://www.w3.org/2000/svg"
   xmlns:svg="http://www.w3.org/2000/svg"><defs
     id="defs2" /><g
     id="layer1"
     transform="translate(223.55253,-92.134876)"><path
       style="fill:#ffff00;stroke-width:1"
       d="m -214.00388,205.12424 c -3.164,-0.85069 -6.23263,-3.26958 -7.93974,-6.2586 -1.81143,-3.17169 -2.12673,-7.63208 -0.77551,-10.97052 0.82431,-2.03662 50.71057,-88.513141 52.33078,-90.714044 1.45028,-1.970067 4.05521,-3.744944 6.65554,-4.534768 4.93022,-1.497509 10.71372,0.380912 13.83186,4.492448 1.40219,1.848904 51.536311,88.725234 52.353542,90.722304 2.968992,7.25538 -1.916935,15.97375 -9.767792,17.4295 -0.97933,0.18159 -19.95673,0.27527 -53.34,0.26331 -44.44493,-0.0159 -52.03739,-0.0771 -53.34868,-0.42963 z"
       id="path314" /><path
       id="rect466"
       style="opacity:0.7;fill:#ff0000;stroke-width:0.499999"
       d="m -160.14382,110.35005 c 4.47648,0 7.77783,3.61403 8.08027,8.08026 l 2.37008,35.00001 c 0.30244,4.46623 -5.97387,8.08026 -10.45035,8.08026 -4.47646,0 -10.75278,-3.61403 -10.45034,-8.08026 l 2.37008,-35.00001 c 0.30244,-4.46623 3.6038,-8.08026 8.08026,-8.08026 z" /><path
       id="circle4772"
       style="opacity:1;fill:#ff0000;stroke-width:0.499999"
       d="m -146.96361,183.59772 a 13.07406,13.07406 0 0 1 -13.07406,13.07406 13.07406,13.07406 0 0 1 -13.07406,-13.07406 13.07406,13.07406 0 0 1 13.07406,-13.07406 13.07406,13.07406 0 0 1 13.07406,13.07406 z" /></g></svg>
