<?xml version="1.0" encoding="UTF-8" standalone="no"?>
<svg
   version="1.1"
   id="svg1"
   width="16"
   height="16"
   viewBox="0 0 16 16"
   xmlns="http://www.w3.org/2000/svg"
   xmlns:svg="http://www.w3.org/2000/svg"
   xmlns:rdf="http://www.w3.org/1999/02/22-rdf-syntax-ns#"
   xmlns:cc="http://creativecommons.org/ns#"
   xmlns:dc="http://purl.org/dc/elements/1.1/">
  <metadata
     id="metadata592">
    <rdf:RDF>
      <cc:Work
         rdf:about="">
        <dc:format>image/svg+xml</dc:format>
        <dc:type
           rdf:resource="http://purl.org/dc/dcmitype/StillImage" />
      </cc:Work>
    </rdf:RDF>
  </metadata>
  <defs
     id="defs590" />
  <g
     aria-label="☯"
     id="text1353"
     style="opacity:1;fill:#009900;font-size:14.7003px;line-height:1.91104px;letter-spacing:7.35017px;stroke-width:0.367508">
    <path
       d="M 14.879741,7.9999998 C 14.879741,4.2073224 11.807378,1.1202593 8,1.1202593 c -3.7926775,0 -6.8797405,3.0870631 -6.8797405,6.8797405 0,3.7926772 3.087063,6.8797402 6.8797405,6.8797402 3.807378,0 6.879741,-3.087063 6.879741,-6.8797402 z M 7.3090859,4.7512335 C 7.3090859,4.383726 7.6177922,4.0603194 8,4.0603194 c 0.3675075,0 0.6909141,0.3234066 0.6909141,0.6909141 0,0.3822078 -0.3234066,0.6909141 -0.6909141,0.6909141 -0.3822078,0 -0.6909141,-0.3087063 -0.6909141,-0.6909141 z m 7.1884471,3.2487663 c 0,3.5868732 -2.91066,6.4975332 -6.497533,6.4975332 -1.7934366,0 -3.2487663,-1.45533 -3.2487663,-3.248767 0,-1.7934364 1.4553297,-3.2487662 3.2487663,-3.2487662 1.7934366,0 3.248766,-1.4553297 3.248766,-3.2487663 0,-1.7934366 -1.4553294,-3.2487663 -3.2340657,-3.2487663 3.5721727,0 6.4828327,2.9106594 6.4828327,6.4975326 z M 8.6909141,11.248766 c 0,-0.367507 -0.3234066,-0.690914 -0.6909141,-0.690914 -0.3822078,0 -0.6909141,0.323407 -0.6909141,0.690914 0,0.382208 0.3087063,0.690914 0.6909141,0.690914 0.3675075,0 0.6909141,-0.308706 0.6909141,-0.690914 z"
       id="path57226" />
  </g>
</svg>
